<svg width="1330" height="1000" viewBox="0 0 1330 1000" fill="none" xmlns="http://www.w3.org/2000/svg">
<circle cx="669" cy="99" r="642" fill="url(#paint0_radial)"/>
<path d="M819 417L528 417L591.673 71L735.725 71L819 417Z" fill="url(#paint1_linear)"/>
<path d="M664.5 193C708.407 193 744 157.407 744 113.5C744 69.5934 708.407 34 664.5 34C620.593 34 585 69.5934 585 113.5C585 157.407 620.593 193 664.5 193Z" fill="url(#paint2_linear)"/>
<path d="M664.949 175.329C698.849 175.329 726.329 147.849 726.329 113.949C726.329 80.0501 698.849 52.5694 664.949 52.5694C631.05 52.5694 603.569 80.0501 603.569 113.949C603.569 147.849 631.05 175.329 664.949 175.329Z" fill="url(#paint3_linear)"/>
<g filter="url(#filter0_i)">
<path d="M702.154 135.128H701.659C701.367 135.128 701.097 135.128 700.777 135.083C698.337 135.032 695.937 135.004 693.672 135.004H692.772H691.873C688.86 135.004 685.769 135.066 682.683 135.213C679.597 135.36 676.404 135.496 673.177 135.694C670.226 135.881 666.994 136.142 663.369 136.487C659.923 136.798 656.5 137.161 653.2 137.568C649.681 137.976 646.247 138.423 642.678 138.932C641.767 139.068 640.868 139.181 639.968 139.317C639.069 139.453 638.17 139.6 637.259 139.725L636.905 139.776C636.343 139.872 635.809 139.946 635.219 140.048C635.123 140.048 633.015 140.495 632.706 141.457C632.668 141.649 632.681 141.847 632.742 142.033C632.803 142.218 632.911 142.385 633.054 142.516H633.116C633.369 142.718 633.632 142.907 633.903 143.082L658.636 157.477C660.606 158.594 662.828 159.179 665.089 159.175C667.34 159.18 669.555 158.595 671.514 157.477L699.911 140.936C701.214 140.075 702.345 138.974 703.244 137.693L703.492 137.342C703.615 137.144 703.75 136.934 703.874 136.713V136.674C703.935 136.54 703.962 136.393 703.954 136.246C703.946 136.1 703.903 135.957 703.829 135.83C703.632 135.457 703.065 135.185 702.154 135.128Z" fill="url(#paint4_linear)" fill-opacity="0.7"/>
<path d="M703.739 108.234H703.688C703.481 108.183 703.256 108.137 703.048 108.075H702.997C702.966 108.069 702.933 108.069 702.902 108.075C677.32 101.644 656.123 98.6669 636.208 98.6669C634.634 98.6669 633.437 98.6669 632.307 98.7065C625.511 99.1254 624.477 99.8387 624.477 103.145V126.92C624.477 127.837 624.246 129.184 624.96 129.847C625.674 130.509 627.164 130.243 628.097 130.215L631.644 130.152C634.106 130.09 636.556 130.005 639.018 129.92C644.297 129.711 649.552 129.433 654.819 129.111C666.724 128.369 678.613 127.339 690.49 126.127L691.969 126.003C692.621 125.912 693.273 125.867 693.88 125.805L698.556 125.392C705.718 124.492 705.684 124.412 705.684 120.92V111.46C705.701 108.409 704.667 108.596 703.739 108.234Z" fill="url(#paint5_linear)" fill-opacity="0.7"/>
<path d="M630.429 88.8454C630.562 88.852 630.693 88.869 630.823 88.8964L632.582 89.0832C634.909 89.3436 637.225 89.5813 639.547 89.8417C643.081 90.2191 646.614 90.5965 650.148 90.9739C654.308 91.4211 658.445 91.8513 662.593 92.3098C666.741 92.7684 670.89 93.1929 675.06 93.6401C678.617 94.0175 682.177 94.3949 685.74 94.7723L692.84 95.5422C694.627 95.729 696.426 95.8988 698.208 96.0233C699.119 96.0743 700.018 96.1252 700.94 96.1479C701.788 96.2585 702.648 96.2413 703.492 96.0969C703.65 96.0636 703.795 95.9827 703.908 95.8648C704.537 95.2195 704.104 93.6345 703.947 92.9155C703.636 91.6031 703.06 90.3691 702.256 89.2901C701.451 88.2111 700.435 87.3102 699.27 86.6434C698.849 86.4056 671.536 70.5384 671.536 70.5384C669.578 69.4184 667.363 68.833 665.111 68.8401C662.847 68.8358 660.62 69.4207 658.647 70.5384L630.913 86.666C630.682 86.8132 630.458 86.949 630.238 87.1132C630.019 87.2774 629.834 87.3962 629.676 87.5208L629.541 87.634C629.451 87.74 629.392 87.8698 629.372 88.0081C629.352 88.1465 629.372 88.2877 629.429 88.4152C629.592 88.7096 629.997 88.7718 630.429 88.8454Z" fill="url(#paint6_linear)" fill-opacity="0.7"/>
</g>
<g filter="url(#filter1_d)">
<rect x="575" width="180" height="54" fill="url(#paint7_linear)"/>
</g>
<g filter="url(#filter2_d)">
<rect x="565" y="40" width="200" height="42" rx="12" fill="url(#paint8_linear)"/>
</g>
<rect x="853" y="796.452" width="284.904" height="162.582" transform="rotate(-30 853 796.452)" fill="url(#paint9_linear)"/>
<g clip-path="url(#clip0)">
<path d="M1210.96 862.525C1210.96 862.155 1210.96 861.785 1210.96 861.415C1210.96 860.635 1210.96 859.855 1210.96 859.085C1210.96 858.885 1210.96 858.695 1210.96 858.505C1210.96 857.945 1210.96 857.385 1210.87 856.835C1210.87 856.835 1210.87 856.835 1210.87 856.765C1210.87 856.495 1210.87 856.235 1210.79 855.965C1210.74 855.475 1210.69 854.965 1210.63 854.495C1210.63 854.195 1210.53 853.895 1210.49 853.595C1210.45 853.295 1210.38 852.835 1210.31 852.465C1210.31 852.395 1210.31 852.335 1210.31 852.275C1210.25 851.965 1210.18 851.655 1210.11 851.345C1210.04 851.035 1209.94 850.515 1209.84 850.105L1209.59 849.165C1209.51 848.865 1209.44 848.565 1209.35 848.275L1209.26 847.985C1209.16 847.665 1209.06 847.355 1208.95 847.035C1208.84 846.715 1208.7 846.275 1208.56 845.905C1208.42 845.535 1208.33 845.285 1208.2 844.975C1208.07 844.665 1208.03 844.495 1207.93 844.255C1207.93 844.165 1207.84 844.075 1207.8 843.975C1207.44 843.145 1207.06 842.315 1206.65 841.515L1186.98 803.415C1187.39 804.215 1187.77 805.045 1188.13 805.875C1188.27 806.205 1188.4 806.535 1188.53 806.875C1188.66 807.215 1188.78 807.495 1188.89 807.805C1189 808.115 1189.16 808.555 1189.28 808.935C1189.4 809.315 1189.49 809.565 1189.59 809.935C1189.69 810.305 1189.81 810.725 1189.92 811.115C1190.03 811.505 1190.09 811.735 1190.17 812.055C1190.25 812.375 1190.36 812.885 1190.44 813.305C1190.52 813.725 1190.58 813.915 1190.64 814.225C1190.7 814.535 1190.79 815.105 1190.86 815.555C1190.86 815.845 1190.96 816.145 1191 816.445C1191.06 816.935 1191.11 817.445 1191.16 817.925C1191.16 818.185 1191.22 818.445 1191.24 818.705C1191.24 819.285 1191.32 819.875 1191.34 820.465C1191.34 820.655 1191.34 820.835 1191.34 821.025C1191.34 821.815 1191.34 822.595 1191.34 823.395C1191.34 823.745 1191.34 824.095 1191.34 824.455C1191.34 824.815 1191.34 825.375 1191.28 825.835C1191.22 826.295 1191.22 826.585 1191.18 826.965C1191.14 827.345 1191.11 827.865 1191.06 828.315C1190.97 829.175 1190.85 830.035 1190.72 830.895C1190.72 831.025 1190.72 831.165 1190.65 831.295C1190.53 832.025 1190.4 832.775 1190.25 833.515L1190.1 834.165C1189.96 834.865 1189.8 835.565 1189.63 836.275L1189.36 837.275C1189.2 837.865 1189.04 838.445 1188.87 839.045C1188.77 839.385 1188.66 839.725 1188.56 840.045C1188.35 840.715 1188.14 841.395 1187.9 842.045C1187.78 842.415 1187.65 842.785 1187.52 843.155C1187.28 843.825 1187.03 844.505 1186.77 845.155C1186.61 845.565 1186.46 845.975 1186.29 846.385C1186.2 846.615 1186.1 846.835 1186.01 847.065C1185.73 847.735 1185.44 848.415 1185.14 849.065C1185.07 849.225 1185.01 849.385 1184.93 849.545C1184.57 850.365 1184.18 851.185 1183.78 852.015C1183.69 852.215 1183.58 852.415 1183.49 852.615L1182.58 854.405C1182.37 854.795 1182.17 855.195 1181.95 855.595C1181.73 855.995 1181.4 856.595 1181.11 857.135L1180.44 858.325C1180.15 858.845 1179.84 859.325 1179.53 859.895L1178.82 861.065C1178.5 861.605 1178.16 862.145 1177.82 862.695C1177.58 863.075 1177.35 863.445 1177.1 863.825L1176.1 865.365C1175.8 865.805 1175.52 866.245 1175.22 866.685L1174.13 868.235C1173.82 868.675 1173.52 869.105 1173.2 869.545C1172.88 869.985 1172.43 870.595 1172.04 871.115C1171.65 871.635 1171.4 871.985 1171.04 872.415C1170.68 872.845 1170.21 873.485 1169.8 874.025L1168.8 875.305C1168.36 875.855 1167.9 876.405 1167.44 876.955L1166.44 878.195L1164.95 879.935L1163.95 881.105C1163.38 881.755 1162.79 882.405 1162.2 883.055C1161.91 883.375 1161.63 883.695 1161.34 884.055C1160.45 885.055 1159.55 886.055 1158.62 886.975C1157.48 888.165 1156.31 889.345 1155.13 890.515L1154.51 891.145C1153.37 892.265 1152.21 893.375 1151.04 894.475L1150.36 895.115C1149.15 896.242 1147.92 897.362 1146.68 898.475L1146.49 898.635C1145.28 899.715 1144.04 900.785 1142.79 901.845L1142.18 902.365C1140.44 903.835 1138.66 905.295 1136.86 906.725L1136.62 906.915C1134.74 908.405 1132.83 909.915 1130.9 911.315L1130.57 911.555C1129.28 912.555 1127.99 913.445 1126.68 914.375L1125.99 914.875C1124.65 915.825 1123.29 916.765 1121.93 917.695L1121.01 918.315L1117.95 920.315L1117.27 920.755C1116.05 921.542 1114.82 922.322 1113.59 923.095L1112.59 923.705L1110.01 925.285L1108.91 925.955L1105.91 927.715L1105.35 928.045C1104.21 928.705 1103.06 929.355 1101.91 930.045L1100.98 930.565C1100.13 931.035 1099.28 931.505 1098.42 931.965L1097.19 932.625L1094.97 933.795L1093.73 934.435L1091.3 935.675L1090.3 936.185L1086.89 937.855L1086.47 938.055L1083.47 939.485L1082.31 940.015L1080.02 941.015L1078.72 941.595L1076.52 942.595L1075.21 943.155L1072.93 944.155L1071.73 944.645L1068.86 945.725L1068.24 945.965C1067.07 946.425 1065.9 946.875 1064.73 947.315L1063.73 947.695L1061.21 948.615L1059.96 949.065L1057.55 949.905L1056.28 950.335L1053.7 951.195L1052.7 951.525L1049.04 952.675L1048.28 952.895L1045.36 953.755L1044.19 954.085L1041.32 954.875L1040.32 955.155L1036.54 956.155L1036.07 956.265C1034.85 956.565 1033.64 956.845 1032.43 957.115L1031.37 957.355C1030.02 957.645 1028.67 957.935 1027.37 958.205C1025.82 958.515 1024.28 958.795 1022.75 959.065L1021.92 959.205C1020.44 959.465 1018.92 959.695 1017.48 959.915L1016.23 960.085L1014.52 960.325L1013.1 960.505L1011.4 960.705L1009.99 960.855L1008.3 961.025L1006.91 961.145L1005.23 961.285L1003.97 961.375L1000.27 961.585H999.86C998.73 961.635 997.6 961.665 996.48 961.685H995.48H991.86C990.68 961.685 989.5 961.685 988.34 961.585H987.44C986.51 961.585 985.58 961.485 984.66 961.415L983.81 961.355C982.67 961.265 981.54 961.165 980.42 961.045L979.78 960.975L977 960.625L976.09 960.495C974.98 960.325 973.88 960.155 972.8 959.955C961.35 957.875 952.06 954.085 944.98 948.955C943.438 947.836 941.969 946.62 940.58 945.315C939.9 944.685 939.25 944.025 938.63 943.315C936.181 940.703 934.105 937.765 932.46 934.585L952.07 972.685C958.53 985.235 972.07 994.335 992.41 998.035C993.49 998.235 994.59 998.405 995.7 998.575L996.61 998.705C997.53 998.835 998.45 998.945 999.39 999.055L1000.03 999.125C1001.15 999.245 1002.28 999.355 1003.42 999.435C1003.7 999.435 1003.99 999.435 1004.27 999.495C1005.19 999.565 1006.12 999.615 1007.05 999.665H1007.95C1009.11 999.715 1010.29 999.745 1011.47 999.765H1015.11H1016.11C1017.22 999.765 1018.34 999.715 1019.47 999.665H1019.78C1021 999.665 1022.23 999.535 1023.47 999.455H1023.88L1024.74 999.385L1026.41 999.245L1027.81 999.125L1029.49 998.955L1030.9 998.805L1032.6 998.605L1034.01 998.425L1035.74 998.195C1036.03 998.195 1036.32 998.115 1036.62 998.075L1036.98 998.015C1038.46 997.795 1039.93 997.565 1041.42 997.305L1042.25 997.165C1043.79 996.895 1045.32 996.615 1046.87 996.305C1048.21 996.035 1049.56 995.745 1050.87 995.455L1051.93 995.215C1053.14 994.945 1054.35 994.665 1055.57 994.365L1055.94 994.285H1056.04L1059.82 993.285L1060.82 993.005L1063.7 992.215L1064.36 992.035L1064.86 991.885C1065.86 991.605 1066.81 991.325 1067.79 991.025L1068.54 990.805C1069.76 990.435 1070.98 990.045 1072.2 989.655L1072.43 989.585L1073.22 989.325L1075.86 988.415L1077.13 987.985C1077.93 987.715 1078.74 987.435 1079.54 987.145C1079.8 987.055 1080.05 986.975 1080.3 986.875L1080.79 986.705C1081.63 986.395 1082.47 986.095 1083.3 985.775L1084.3 985.395L1087.81 984.045H1087.88L1088.42 983.825L1091.27 982.675L1092.47 982.185L1094.75 981.185C1094.94 981.105 1095.13 981.035 1095.31 980.945L1096.06 980.625L1098.26 979.625L1099.56 979.045L1101.85 978.045L1102.71 977.655L1103.02 977.515L1106.02 976.075L1106.41 975.895C1107.55 975.345 1108.69 974.785 1109.82 974.215L1110.05 974.105L1110.83 973.705L1113.26 972.475L1114.5 971.825L1116.72 970.655L1117.43 970.285L1117.96 969.995L1120.49 968.605L1121.49 968.075C1122.64 967.435 1123.78 966.785 1124.92 966.075L1125.03 966.015L1125.48 965.755L1128.48 963.985L1129.58 963.315L1132.16 961.745L1132.83 961.325L1133.14 961.135C1134.37 960.355 1135.6 959.572 1136.82 958.785L1137.5 958.335C1138.5 957.665 1139.5 956.995 1140.56 956.335L1141.11 955.965L1141.48 955.715C1142.84 954.785 1144.2 953.845 1145.54 952.895L1146.24 952.395C1147.57 951.469 1148.86 950.529 1150.11 949.575L1150.38 949.385H1150.45C1152.38 947.945 1154.28 946.479 1156.17 944.985L1156.41 944.795C1158.22 943.365 1159.99 941.905 1161.74 940.435L1161.93 940.275L1162.34 939.925C1163.59 938.859 1164.83 937.785 1166.05 936.705L1166.23 936.545C1167.47 935.432 1168.7 934.312 1169.91 933.185C1170.14 932.975 1170.37 932.765 1170.59 932.545C1171.76 931.445 1172.92 930.335 1174.06 929.215L1174.69 928.585C1175.86 927.415 1177.03 926.235 1178.17 925.045C1179.1 924.045 1180 923.105 1180.89 922.135C1181.2 921.805 1181.48 921.475 1181.78 921.135C1182.36 920.495 1182.94 919.855 1183.5 919.215L1184.5 918.035C1185 917.465 1185.5 916.885 1185.98 916.305L1186.98 915.065C1187.43 914.515 1187.89 913.965 1188.33 913.415L1189.33 912.135C1189.75 911.595 1190.17 911.065 1190.57 910.535C1190.97 910.005 1191.23 909.655 1191.57 909.215C1191.91 908.775 1192.35 908.215 1192.72 907.655L1193.66 906.335C1194.02 905.825 1194.39 905.335 1194.74 904.795C1195.09 904.255 1195.33 903.915 1195.62 903.465C1195.91 903.015 1196.17 902.665 1196.43 902.255L1196.63 901.945L1197.36 900.795C1197.7 900.255 1198.04 899.715 1198.36 899.185L1199.07 898.005C1199.38 897.475 1199.69 897.005 1199.98 896.435L1200.65 895.245C1200.94 894.725 1201.22 894.245 1201.49 893.705C1201.76 893.165 1201.91 892.905 1202.12 892.515L1202.49 891.805C1202.68 891.445 1202.85 891.085 1203.03 890.725C1203.12 890.525 1203.23 890.325 1203.32 890.125C1203.72 889.295 1204.11 888.475 1204.47 887.665C1204.55 887.495 1204.61 887.335 1204.69 887.175C1204.98 886.505 1205.27 885.825 1205.55 885.175C1205.64 884.945 1205.74 884.725 1205.83 884.495C1205.92 884.265 1205.98 884.135 1206.05 883.965C1206.12 883.795 1206.22 883.505 1206.31 883.265C1206.57 882.585 1206.82 881.905 1207.06 881.265L1207.45 880.155C1207.68 879.475 1207.89 878.795 1208.1 878.155C1208.17 877.925 1208.26 877.685 1208.32 877.455C1208.38 877.225 1208.38 877.245 1208.41 877.135C1208.59 876.535 1208.74 875.945 1208.9 875.355L1209.17 874.355C1209.34 873.645 1209.5 872.945 1209.65 872.235C1209.65 872.045 1209.74 871.855 1209.78 871.655C1209.78 871.635 1209.78 871.615 1209.78 871.595C1209.93 870.855 1210.06 870.115 1210.18 869.375C1210.18 869.245 1210.18 869.115 1210.25 868.975C1210.39 868.115 1210.5 867.255 1210.59 866.395C1210.64 865.955 1210.66 865.535 1210.7 865.105C1210.74 864.675 1210.78 864.325 1210.8 863.945C1210.82 863.565 1210.94 862.975 1210.96 862.525Z" fill="url(#paint10_linear)"/>
<path d="M1158.63 886.965C1110.5 939 1027.4 969.855 972.76 959.965C918.12 950.075 912.76 901.255 960.76 851.025C1008.76 800.795 1091.98 768.135 1146.62 778.075C1201.26 788.015 1206.64 836.735 1158.63 886.965Z" fill="url(#paint11_linear)"/>
<path d="M1137.31 883.085C1099.64 922.495 1034.31 948.085 991.49 940.325C948.67 932.565 944.42 894.265 982.09 854.855C1019.76 815.445 1085.04 789.855 1127.91 797.615C1170.78 805.375 1174.98 843.685 1137.31 883.085Z" fill="url(#paint12_linear)"/>
<path d="M985.32 862.015C1022.98 822.605 1088.27 797.015 1131.13 804.775C1145.97 807.475 1156.13 813.775 1161.61 822.605C1157.83 810.135 1146.52 801.005 1127.91 797.605C1085.04 789.815 1019.76 815.415 982.09 854.855C957.45 880.625 950.73 905.855 961.02 922.495C956.1 906.245 964 884.315 985.32 862.015Z" fill="#6DD1FC" fill-opacity="0.5"/>
<g filter="url(#filter3_i)">
<path d="M1052.74 920.267L1052.51 919.863C1052.37 919.624 1052.24 919.403 1052.15 919.106C1051.07 917.071 1049.98 915.087 1048.91 913.235L1048.49 912.5L1048.06 911.765C1046.64 909.302 1045.1 906.825 1043.44 904.419C1041.78 902.013 1040.09 899.511 1038.29 897.03C1036.64 894.766 1034.76 892.33 1032.58 889.64C1030.52 887.07 1028.41 884.559 1026.29 882.185C1024.07 879.631 1021.84 877.178 1019.46 874.664C1018.84 874.027 1018.26 873.382 1017.65 872.754C1017.04 872.127 1016.41 871.508 1015.81 870.863L1015.57 870.613C1015.18 870.23 1014.82 869.852 1014.41 869.45C1014.36 869.372 1012.75 868.003 1011.29 868.513C1011.01 868.634 1010.74 868.801 1010.51 868.998C1010.29 869.195 1010.11 869.415 1010 869.636L1010.03 869.687C1009.87 870.053 1009.73 870.417 1009.62 870.778L1001.55 902.396C1000.95 904.89 1001.19 907.17 1002.26 909.015C1003.32 910.86 1005.17 912.206 1007.62 912.922L1043.72 923.034C1045.51 923.416 1047.56 923.469 1049.74 923.189L1050.34 923.114C1050.67 923.058 1051.02 923.002 1051.38 922.928L1051.43 922.897C1051.65 922.841 1051.86 922.747 1052.06 922.624C1052.26 922.502 1052.43 922.353 1052.57 922.192C1052.99 921.736 1053.09 921.056 1052.74 920.267Z" fill="url(#paint13_linear)" fill-opacity="0.7"/>
<path d="M1090.38 900.263L1090.36 900.221C1090.33 900.011 1090.29 899.791 1090.27 899.572L1090.25 899.531C1090.24 899.5 1090.23 899.473 1090.21 899.453C1086.95 873.449 1081.04 853.765 1071.64 837.486C1070.89 836.199 1070.33 835.221 1069.74 834.329C1065.96 829.105 1064.49 828.825 1059.96 831.443L1027.34 850.273C1026.09 850.999 1024.13 851.878 1023.56 852.986C1022.99 854.094 1024.05 855.101 1024.53 855.841L1026.29 858.691C1027.54 860.654 1028.81 862.59 1030.09 864.536C1032.87 868.684 1035.73 872.76 1038.66 876.81C1045.29 885.954 1052.32 894.856 1059.58 903.605L1060.45 904.715C1060.89 905.176 1061.26 905.673 1061.63 906.12L1064.4 909.615C1069.02 914.756 1069.11 914.666 1073.9 911.899L1086.88 904.408C1091.07 902.005 1090.32 901.308 1090.38 900.263Z" fill="url(#paint14_linear)" fill-opacity="0.7"/>
<path d="M1082.38 824.984C1082.44 825.097 1082.48 825.218 1082.5 825.346L1083.07 826.932C1083.81 829.04 1084.58 831.122 1085.32 833.226C1086.47 836.413 1087.62 839.6 1088.77 842.788C1090.12 846.542 1091.48 850.264 1092.81 854.018C1094.14 857.772 1095.51 861.499 1096.87 865.263C1098.03 868.468 1099.19 871.677 1100.36 874.889L1102.65 881.302C1103.24 882.911 1103.85 884.516 1104.52 886.071C1104.88 886.856 1105.24 887.631 1105.64 888.403C1105.89 889.184 1106.32 889.873 1106.92 890.448C1107.04 890.552 1107.22 890.606 1107.43 890.604C1108.61 890.608 1110.58 888.999 1111.49 888.301C1113.15 887.007 1114.57 885.559 1115.67 884.047C1116.77 882.535 1117.53 880.991 1117.89 879.51C1118.02 878.978 1126.9 844.085 1126.9 844.085C1127.51 841.598 1127.27 839.324 1126.19 837.489C1125.13 835.635 1123.28 834.278 1120.81 833.55L1085.6 823.653C1085.29 823.581 1085 823.505 1084.67 823.456C1084.34 823.407 1084.09 823.349 1083.84 823.319L1083.63 823.299C1083.44 823.309 1083.23 823.363 1083.03 823.457C1082.83 823.55 1082.65 823.678 1082.5 823.825C1082.17 824.192 1082.28 824.572 1082.38 824.984Z" fill="url(#paint15_linear)" fill-opacity="0.7"/>
</g>
</g>
<rect x="121.851" y="427" width="201.501" height="162.582" transform="rotate(38.3385 121.851 427)" fill="url(#paint16_linear)"/>
<g clip-path="url(#clip1)">
<path d="M182.849 675.072C182.41 675.593 181.949 676.107 181.48 676.607L181.004 677.083C180.677 677.411 180.35 677.739 180.008 678.052C179.814 678.238 179.606 678.41 179.405 678.589C179.085 678.872 178.766 679.147 178.438 679.416C178.111 679.684 177.992 679.773 177.761 679.952C177.531 680.131 177.1 680.459 176.757 680.697C176.415 680.936 176.281 681.04 176.014 681.204C175.746 681.368 175.27 681.673 174.943 681.897C174.697 682.053 174.452 682.21 174.199 682.359C173.82 682.582 173.455 682.799 173.031 683.015C172.786 683.149 172.54 683.283 172.288 683.41C171.849 683.641 171.395 683.857 170.934 684.065C170.718 684.17 170.51 684.274 170.287 684.371C169.647 684.654 168.993 684.922 168.331 685.176L167.818 685.362C167.297 685.556 166.762 685.742 166.219 685.913L165.579 686.114C164.954 686.308 164.322 686.487 163.675 686.651L163.4 686.725C162.656 686.912 161.912 687.083 161.169 687.239L160.529 687.359C159.941 687.47 159.346 687.575 158.744 687.664L158.052 687.769C157.249 687.88 156.438 687.985 155.605 688.067H155.546C154.735 688.149 153.902 688.208 153.062 688.253L152.281 688.29C151.641 688.29 150.994 688.335 150.34 688.342H149.559C148.666 688.342 147.759 688.342 146.837 688.342L144.94 688.253L144.286 688.208L143.021 688.111L142.278 688.037L141.125 687.925L140.292 687.828C139.935 687.783 139.548 687.746 139.221 687.694C138.477 687.597 137.689 687.485 136.923 687.366L136.566 687.307C135.911 687.202 135.257 687.09 134.595 686.964L133.851 686.822C133.316 686.718 132.773 686.614 132.23 686.494L131.434 686.33L129.664 685.921L129.076 685.786C128.288 685.593 127.507 685.399 126.719 685.183L126.198 685.041C125.581 684.877 124.963 684.699 124.339 684.52L123.543 684.281L121.899 683.782L121.111 683.529L119.207 682.895L118.708 682.724L117.615 682.344L116.626 681.986L115.533 681.577L114.536 681.204L113.42 680.764L112.454 680.377L111.331 679.915C111.011 679.781 110.683 679.654 110.364 679.513L109.256 679.036L108.281 678.611L107.166 678.104L106.199 677.665L104.934 677.069L104.057 676.659L102.733 676.003L101.989 675.638L99.9811 674.61L99.6984 674.468C99.0811 674.14 98.4638 673.82 97.854 673.484C97.5788 673.343 97.3036 673.186 97.0359 673.037C96.6194 672.814 96.2029 672.59 95.7864 672.352C95.5037 672.203 95.2285 672.039 94.9534 671.882L93.7336 671.189L92.8411 670.668C92.4544 670.444 92.0974 670.221 91.6884 669.99L90.7512 669.424L89.6505 668.76L88.6762 668.149L87.6275 667.494L86.6607 666.868L85.5971 666.19L84.6451 665.556L83.5965 664.856L82.6445 664.208L81.6032 663.463L80.6512 662.792C80.3091 662.546 79.967 662.315 79.6323 662.047L78.6729 661.354L77.6614 660.609L76.7243 659.908L75.7128 659.163L74.7831 658.418L73.7865 657.673L72.8494 656.928L71.8751 656.183L70.9529 655.438C70.6256 655.177 70.2984 654.916 69.9786 654.648L69.0712 653.903L68.1043 653.098L67.2044 652.353L66.245 651.533L65.3525 650.743L64.4154 649.916L63.5229 649.111L62.6007 648.269L61.723 647.457L60.8083 646.593L59.9529 645.766C59.648 645.475 59.3431 645.192 59.0456 644.894L58.1977 644.067L57.3052 643.18C57.0226 642.904 56.7474 642.621 56.4722 642.338L55.5872 641.444L54.9773 640.811C54.5088 640.326 54.0476 639.842 53.5865 639.32L52.9395 638.627C52.4709 638.128 52.0098 637.622 51.5487 637.137L51.0206 636.563C50.4033 635.87 49.786 635.17 49.1761 634.47L48.8638 634.112C48.358 633.531 47.8523 632.935 47.3763 632.346L46.7962 631.646C46.3797 631.146 45.9706 630.64 45.5616 630.155L44.9889 629.41C44.5203 628.829 44.0592 628.248 43.6055 627.659L43.2634 627.227C42.6982 626.482 42.1478 625.737 41.5974 625.029L41.1735 624.448C40.7644 623.896 40.3628 623.345 39.9686 622.786L39.5298 622.175C38.7861 621.117 38.0423 620.051 37.2986 618.979L36.9862 618.494C36.2574 617.406 35.5508 616.308 34.8666 615.201L34.6211 614.813C33.922 613.673 33.2378 612.533 32.5759 611.378L32.4271 611.125C31.7429 609.928 31.076 608.721 30.4265 607.504C30.0248 606.758 29.6381 606.013 29.2588 605.268L28.753 604.225C28.5299 603.785 28.3142 603.338 28.106 602.899C27.8977 602.459 27.7787 602.206 27.6151 601.856C27.4515 601.505 27.2135 600.991 27.0201 600.559C26.8267 600.127 26.7152 599.814 26.559 599.501L26.0161 598.242C25.8748 597.884 25.7334 597.497 25.5847 597.184C25.4359 596.871 25.25 596.349 25.0938 595.939C24.9376 595.529 24.8186 595.239 24.6922 594.889C24.5658 594.538 24.3873 594.076 24.2385 593.667L23.8667 592.616C23.7328 592.221 23.5915 591.819 23.4576 591.416L23.1229 590.381C22.9965 589.986 22.8775 589.591 22.7585 589.196C22.6395 588.801 22.5502 588.51 22.4536 588.168L22.1858 587.199C21.9329 586.275 21.6949 585.358 21.4793 584.449C21.4625 584.401 21.45 584.351 21.4421 584.3C21.2189 583.347 21.0256 582.408 20.8471 581.476L20.7132 580.731C20.5645 579.912 20.4306 579.092 20.3116 578.28C20.3116 578.161 20.2744 578.049 20.2595 577.93C20.1331 577.028 20.0364 576.134 19.9546 575.247C19.9546 575.024 19.9174 574.8 19.8951 574.569C19.8356 573.819 19.791 573.074 19.7612 572.334C19.7612 572.185 19.7612 572.028 19.7612 571.872C19.7612 571.015 19.7612 570.173 19.7612 569.331V568.727C19.7612 568.027 19.8058 567.341 19.8579 566.656C19.8579 566.484 19.8579 566.306 19.8579 566.142C19.9248 565.329 20.0067 564.532 20.1108 563.75C20.1108 563.571 20.1628 563.4 20.1851 563.221C20.2818 562.572 20.3859 561.924 20.5124 561.291C20.5124 561.112 20.5793 560.933 20.6091 560.754C20.7653 560.009 20.9437 559.264 21.1371 558.519C21.1743 558.377 21.2189 558.236 21.2561 558.094C21.4272 557.476 21.6131 556.872 21.8139 556.276C21.866 556.097 21.9255 555.919 21.985 555.747C22.2304 555.047 22.4907 554.354 22.7734 553.683C22.818 553.571 22.87 553.475 22.9147 553.363C23.1675 552.782 23.4353 552.208 23.7179 551.642C23.7997 551.478 23.8815 551.306 23.9708 551.142C24.298 550.501 24.6476 549.868 25.0194 549.25L25.131 549.078C25.4731 548.512 25.8748 547.968 26.2169 547.424L26.5441 546.97C26.9681 546.388 27.3994 545.815 27.8605 545.263L8.14397 568.914C7.69029 569.465 7.25149 570.039 6.82756 570.62L6.50776 571.074C6.12845 571.618 5.76402 572.162 5.4219 572.729L5.31032 572.9C4.93845 573.518 4.56659 574.152 4.25422 574.793C4.17241 574.957 4.0906 575.128 4.00135 575.292C3.72617 575.858 3.45098 576.432 3.20555 577.013C3.15348 577.117 3.10886 577.222 3.06423 577.333C2.78161 578.004 2.5213 578.697 2.27587 579.397L2.09738 579.927C1.89657 580.523 1.71806 581.126 1.547 581.745C1.50237 581.886 1.45776 582.028 1.42057 582.169C1.2272 582.914 1.05613 583.66 0.899946 584.405C0.862759 584.583 0.833021 584.762 0.795834 584.941C0.676835 585.575 0.565257 586.223 0.476008 586.871C0.476008 587.05 0.423957 587.221 0.394208 587.4C0.297521 588.145 0.20826 588.98 0.14876 589.792C0.14876 589.956 0.148769 590.135 0.111582 590.306C0.066958 590.984 0.0372048 591.677 0.0148926 592.378C0.0148926 592.579 0.0148926 592.78 0.0148926 592.981C0.0148926 593.816 0.0148926 594.665 0.0148926 595.522V595.984C0.0148926 596.729 0.0967058 597.474 0.156205 598.219C0.156205 598.45 0.193405 598.674 0.215717 598.897C0.297529 599.784 0.394195 600.678 0.520631 601.58C0.520631 601.699 0.520636 601.811 0.572698 601.93C0.684259 602.742 0.818131 603.562 0.966879 604.381L1.10077 605.127C1.27927 606.058 1.47263 606.997 1.69575 607.951C1.71164 607.999 1.72406 608.049 1.73293 608.1C1.94862 609.009 2.18662 609.925 2.43949 610.849C2.47668 610.976 2.50643 611.103 2.53618 611.229L2.71467 611.818C2.81136 612.161 2.90804 612.503 3.01217 612.846C3.11629 613.189 3.2576 613.636 3.38404 614.031C3.51047 614.426 3.59973 614.724 3.71873 615.067C3.83773 615.409 3.98647 615.864 4.12778 616.266C4.26909 616.669 4.37321 616.967 4.49965 617.317C4.62608 617.667 4.79715 618.129 4.9459 618.539L5.34752 619.59C5.51114 619.999 5.67476 620.417 5.84582 620.834L6.2772 621.892C6.4557 622.309 6.63418 622.734 6.82011 623.151C7.00605 623.568 7.12507 623.852 7.28125 624.209C7.43744 624.567 7.67543 625.074 7.87624 625.506L8.35966 626.549C8.57535 626.996 8.79103 627.436 9.01416 627.883C9.23728 628.33 9.34883 628.568 9.5199 628.911L9.60914 629.097C9.9587 629.783 10.3157 630.476 10.6876 631.169C11.3272 632.386 11.9941 633.593 12.6882 634.79C12.7329 634.879 12.7849 634.961 12.8295 635.043C13.494 636.191 14.1782 637.333 14.8823 638.471L15.1277 638.873C15.8119 639.976 16.516 641.071 17.2399 642.159L17.5597 642.644C18.2737 643.717 19.0175 644.782 19.7909 645.84L19.9769 646.109C20.0587 646.22 20.1405 646.34 20.2298 646.451C20.6239 647.01 21.0256 647.562 21.4272 648.105L21.8585 648.694C22.4089 649.439 22.9593 650.184 23.5171 650.885L23.8741 651.339C24.3278 651.921 24.7815 652.502 25.2426 653.075L25.8227 653.821C26.2318 654.327 26.6408 654.827 27.0573 655.311L27.6374 656.004C28.1357 656.6 28.6415 657.196 29.1249 657.785C29.229 657.896 29.3257 658.016 29.4298 658.135C30.0397 658.835 30.657 659.536 31.2817 660.229L31.8098 660.81C32.2709 661.309 32.732 661.816 33.2006 662.3L33.8477 662.993C34.3088 663.49 34.7699 663.987 35.231 664.483C35.3649 664.625 35.4987 664.774 35.6401 664.908L35.8483 665.124L36.7259 666.018L37.5589 666.86L38.4514 667.74L39.3067 668.582L40.1992 669.438L41.0694 670.273L41.9842 671.122L42.8618 671.935C43.1667 672.218 43.4717 672.501 43.784 672.777L44.6691 673.581L45.6062 674.408L46.5061 675.198L47.4507 676.01L48.358 676.756L49.3249 677.56L50.2323 678.305L51.2066 679.095L52.1362 679.84L53.1105 680.586L54.0476 681.331L55.0368 682.076L55.9739 682.821L56.9854 683.566L57.9225 684.266L58.9415 685.012L59.886 685.697L60.9124 686.442L61.8644 687.113L62.9205 687.858L63.8502 688.499L64.9137 689.199L65.8582 689.833L66.9218 690.518L67.8738 691.129L68.9522 691.807L69.9042 692.396L71.0272 693.081L71.9346 693.633L73.1023 694.318L73.9873 694.832L75.2294 695.577L76.0326 696.032L77.3565 696.777L78.1002 697.187L79.796 698.081L80.4504 698.431L82.2354 699.34L83.0163 699.72L84.3179 700.361L85.2029 700.778L86.3929 701.337L87.3523 701.769L88.4828 702.284L89.4497 702.701L90.5653 703.185C90.8851 703.327 91.2124 703.453 91.5322 703.588L92.6552 704.049L93.6295 704.437L94.7377 704.877L95.7492 705.257L96.8202 705.659L97.8242 706.017L98.9026 706.397H99.0068L99.4009 706.531L101.305 707.164L102.101 707.41C102.644 707.589 103.194 707.753 103.744 707.917L104.54 708.155L106.385 708.677L106.92 708.818C107.709 709.034 108.489 709.228 109.27 709.422L109.865 709.556L111.635 709.966L112.431 710.13L114.045 710.458L114.789 710.599C115.443 710.726 116.098 710.838 116.752 710.942L117.117 711.002C117.861 711.121 118.649 711.233 119.415 711.329H119.586L120.553 711.419L121.378 711.516L122.539 711.627L123.282 711.702L124.562 711.799L125.194 711.844L127.098 711.933C128.02 711.933 128.927 711.978 129.82 711.933H130.608C131.27 711.933 131.917 711.933 132.557 711.881L133.301 711.844C134.149 711.799 134.981 711.739 135.8 711.657H135.859C136.685 711.575 137.495 711.471 138.291 711.359L138.983 711.255C139.585 711.158 140.18 711.061 140.775 710.949L141.407 710.83C142.171 710.676 142.915 710.505 143.639 710.316L143.921 710.242C144.568 710.078 145.2 709.891 145.825 709.705L146.457 709.504C147 709.325 147.536 709.146 148.064 708.952L148.57 708.766C149.194 708.528 149.812 708.282 150.414 708.021L150.533 707.961L151.18 707.656C151.634 707.447 152.088 707.231 152.534 707C152.787 706.874 153.032 706.739 153.277 706.605C153.672 706.389 154.021 706.173 154.438 705.95L155.181 705.488C155.548 705.264 155.905 705.033 156.252 704.795L156.996 704.288C157.338 704.042 157.666 703.796 158 703.543C158.335 703.289 158.454 703.193 158.67 703.006C159.004 702.738 159.324 702.462 159.644 702.179C159.845 702 160.053 701.829 160.246 701.643C160.588 701.33 160.916 701.002 161.236 700.674L161.719 700.197C162.188 699.698 162.641 699.191 163.08 698.707L182.849 675.072Z" fill="url(#paint17_linear)"/>
<path d="M182.446 675.494C202.781 651.094 184.56 602.282 141.749 566.47C98.937 530.658 47.7463 521.407 27.4112 545.808C7.07598 570.208 25.2968 619.02 68.1085 654.832C110.92 690.644 162.111 699.895 182.446 675.494Z" fill="url(#paint18_linear)"/>
<path d="M169.277 662.359C185.462 642.938 170.632 603.814 136.154 574.973C101.676 546.132 60.6051 538.496 44.4199 557.916C28.2347 577.337 43.0642 616.461 77.5424 645.302C112.021 674.143 153.092 681.78 169.277 662.359Z" fill="url(#paint19_linear)"/>
<path d="M167.185 612.57C148.741 577.825 106.771 548.698 73.4741 547.521C59.0901 547.014 48.6778 551.798 42.9807 560.188C48.8711 556.135 56.844 554.011 66.6688 554.354C99.9884 555.531 141.958 584.658 160.38 619.411C170.867 639.157 171.492 656.473 163.958 667.523C178.022 657.837 180.186 637.078 167.185 612.57Z" fill="#6DD1FC" fill-opacity="0.5"/>
<g filter="url(#filter4_i)">
<path d="M139.078 611.315L138.8 611.592C138.636 611.756 138.484 611.908 138.27 612.054C136.862 613.385 135.494 614.712 134.222 615.983L133.717 616.488L133.212 616.993C131.52 618.685 129.831 620.467 128.209 622.31C126.587 624.153 124.897 626.048 123.234 628.008C121.717 629.805 120.098 631.815 118.322 634.11C116.621 636.278 114.971 638.472 113.424 640.63C111.755 642.912 110.162 645.176 108.541 647.562C108.131 648.175 107.711 648.765 107.308 649.372C106.906 649.979 106.511 650.595 106.093 651.199L105.933 651.436C105.689 651.824 105.445 652.179 105.19 652.587C105.136 652.641 104.288 654.16 104.837 655.056C104.96 655.221 105.116 655.363 105.289 655.468C105.463 655.573 105.648 655.637 105.828 655.655L105.862 655.62C106.156 655.63 106.445 655.624 106.729 655.603L131.42 652.523C133.364 652.255 135.051 651.446 136.318 650.175C137.586 648.914 138.39 647.232 138.65 645.293L142.178 616.933C142.263 615.555 142.071 614.094 141.615 612.627L141.49 612.225C141.411 612.007 141.329 611.774 141.233 611.539L141.203 611.509C141.137 611.374 141.042 611.249 140.928 611.143C140.813 611.037 140.682 610.954 140.545 610.901C140.154 610.731 139.631 610.846 139.078 611.315Z" fill="url(#paint20_linear)" fill-opacity="0.7"/>
<path d="M119.78 590.237L119.752 590.265C119.597 590.344 119.436 590.436 119.273 590.506L119.245 590.535C119.222 590.548 119.204 590.566 119.191 590.588C100.002 600.124 85.8657 609.789 74.6845 620.971C73.8008 621.854 73.1286 622.527 72.5241 623.191C69.023 627.321 68.9777 628.437 71.4592 630.918L89.3055 648.764C89.9938 649.453 90.8757 650.593 91.7737 650.69C92.6716 650.786 93.3082 649.75 93.8109 649.205L95.7555 647.167C97.091 645.738 98.4032 644.298 99.7217 642.852C102.528 639.732 105.27 636.573 107.985 633.373C114.113 626.133 120.014 618.685 125.773 611.107L126.51 610.183C126.808 609.749 127.14 609.349 127.434 608.962L129.749 606.026C133.094 601.33 133.016 601.289 130.394 598.667L123.294 591.567C121.013 589.267 120.573 589.988 119.78 590.237Z" fill="url(#paint21_linear)" fill-opacity="0.7"/>
<path d="M64.068 616.843C64.1472 616.773 64.2339 616.712 64.3272 616.66L65.4552 615.813C66.9572 614.701 68.4359 613.58 69.9347 612.472C72.202 610.771 74.4692 609.07 76.7365 607.37C79.4075 605.37 82.0532 603.37 84.7264 601.385C87.3996 599.4 90.0473 597.39 92.7246 595.384C95.0045 593.671 97.2865 591.955 99.5706 590.238L104.134 586.83C105.278 585.967 106.415 585.084 107.509 584.177C108.059 583.704 108.602 583.237 109.137 582.737C109.696 582.344 110.166 581.848 110.531 581.266C110.595 581.152 110.616 581.01 110.59 580.858C110.46 580.02 109.027 579.074 108.399 578.622C107.239 577.812 105.989 577.209 104.728 576.851C103.466 576.492 102.22 576.387 101.065 576.54C100.65 576.598 73.4052 580.022 73.4052 580.022C71.4652 580.281 69.7824 581.085 68.5234 582.355C67.249 583.623 66.4379 585.312 66.1689 587.259L62.7035 614.935C62.6846 615.175 62.6603 615.404 62.6605 615.65C62.6606 615.896 62.6457 616.09 62.6508 616.271L62.6601 616.432C62.6889 616.562 62.7534 616.693 62.846 616.808C62.9387 616.923 63.0557 617.018 63.1834 617.082C63.4958 617.211 63.7698 617.031 64.068 616.843Z" fill="url(#paint22_linear)" fill-opacity="0.7"/>
</g>
</g>
<defs>
<filter id="filter0_i" x="624.441" y="68.8401" width="81.2429" height="92.3354" filterUnits="userSpaceOnUse" color-interpolation-filters="sRGB">
<feFlood flood-opacity="0" result="BackgroundImageFix"/>
<feBlend mode="normal" in="SourceGraphic" in2="BackgroundImageFix" result="shape"/>
<feColorMatrix in="SourceAlpha" type="matrix" values="0 0 0 0 0 0 0 0 0 0 0 0 0 0 0 0 0 0 127 0" result="hardAlpha"/>
<feOffset dy="2"/>
<feGaussianBlur stdDeviation="2"/>
<feComposite in2="hardAlpha" operator="arithmetic" k2="-1" k3="1"/>
<feColorMatrix type="matrix" values="0 0 0 0 0 0 0 0 0 0 0 0 0 0 0 0 0 0 0.15 0"/>
<feBlend mode="normal" in2="shape" result="effect1_innerShadow"/>
</filter>
<filter id="filter1_d" x="571" y="0" width="188" height="62" filterUnits="userSpaceOnUse" color-interpolation-filters="sRGB">
<feFlood flood-opacity="0" result="BackgroundImageFix"/>
<feColorMatrix in="SourceAlpha" type="matrix" values="0 0 0 0 0 0 0 0 0 0 0 0 0 0 0 0 0 0 127 0"/>
<feOffset dy="4"/>
<feGaussianBlur stdDeviation="2"/>
<feColorMatrix type="matrix" values="0 0 0 0 0 0 0 0 0 0 0 0 0 0 0 0 0 0 0.25 0"/>
<feBlend mode="normal" in2="BackgroundImageFix" result="effect1_dropShadow"/>
<feBlend mode="normal" in="SourceGraphic" in2="effect1_dropShadow" result="shape"/>
</filter>
<filter id="filter2_d" x="553" y="32" width="224" height="66" filterUnits="userSpaceOnUse" color-interpolation-filters="sRGB">
<feFlood flood-opacity="0" result="BackgroundImageFix"/>
<feColorMatrix in="SourceAlpha" type="matrix" values="0 0 0 0 0 0 0 0 0 0 0 0 0 0 0 0 0 0 127 0"/>
<feOffset dy="4"/>
<feGaussianBlur stdDeviation="6"/>
<feColorMatrix type="matrix" values="0 0 0 0 0 0 0 0 0 0 0 0 0 0 0 0 0 0 0.5 0"/>
<feBlend mode="normal" in2="BackgroundImageFix" result="effect1_dropShadow"/>
<feBlend mode="normal" in="SourceGraphic" in2="effect1_dropShadow" result="shape"/>
</filter>
<filter id="filter3_i" x="986.971" y="808.27" width="157.688" height="134.516" filterUnits="userSpaceOnUse" color-interpolation-filters="sRGB">
<feFlood flood-opacity="0" result="BackgroundImageFix"/>
<feBlend mode="normal" in="SourceGraphic" in2="BackgroundImageFix" result="shape"/>
<feColorMatrix in="SourceAlpha" type="matrix" values="0 0 0 0 0 0 0 0 0 0 0 0 0 0 0 0 0 0 127 0" result="hardAlpha"/>
<feOffset dy="2"/>
<feGaussianBlur stdDeviation="2"/>
<feComposite in2="hardAlpha" operator="arithmetic" k2="-1" k3="1"/>
<feColorMatrix type="matrix" values="0 0 0 0 0 0 0 0 0 0 0 0 0 0 0 0 0 0 0.15 0"/>
<feBlend mode="normal" in2="shape" result="effect1_innerShadow"/>
</filter>
<filter id="filter4_i" x="48.4539" y="560.387" width="109.685" height="109.981" filterUnits="userSpaceOnUse" color-interpolation-filters="sRGB">
<feFlood flood-opacity="0" result="BackgroundImageFix"/>
<feBlend mode="normal" in="SourceGraphic" in2="BackgroundImageFix" result="shape"/>
<feColorMatrix in="SourceAlpha" type="matrix" values="0 0 0 0 0 0 0 0 0 0 0 0 0 0 0 0 0 0 127 0" result="hardAlpha"/>
<feOffset dy="2"/>
<feGaussianBlur stdDeviation="2"/>
<feComposite in2="hardAlpha" operator="arithmetic" k2="-1" k3="1"/>
<feColorMatrix type="matrix" values="0 0 0 0 0 0 0 0 0 0 0 0 0 0 0 0 0 0 0.15 0"/>
<feBlend mode="normal" in2="shape" result="effect1_innerShadow"/>
</filter>
<radialGradient id="paint0_radial" cx="0" cy="0" r="1" gradientUnits="userSpaceOnUse" gradientTransform="translate(669 99) rotate(90) scale(642)">
<stop stop-color="#04BEFE" stop-opacity="0.25"/>
<stop offset="1" stop-color="#C4C4C4" stop-opacity="0"/>
</radialGradient>
<linearGradient id="paint1_linear" x1="857.693" y1="399.298" x2="951.032" y2="229.468" gradientUnits="userSpaceOnUse">
<stop stop-color="#5FF19D" stop-opacity="0"/>
<stop offset="1" stop-color="#8EEDF4" stop-opacity="0.2"/>
</linearGradient>
<linearGradient id="paint2_linear" x1="585" y1="113.5" x2="744" y2="113.5" gradientUnits="userSpaceOnUse">
<stop stop-color="#97F7B7"/>
<stop offset="1" stop-color="#8BE2FF"/>
</linearGradient>
<linearGradient id="paint3_linear" x1="603.569" y1="113.949" x2="726.329" y2="113.949" gradientUnits="userSpaceOnUse">
<stop stop-color="#5DF09E"/>
<stop offset="1" stop-color="#8EEDF4"/>
</linearGradient>
<linearGradient id="paint4_linear" x1="630.438" y1="147.09" x2="708.636" y2="147.09" gradientUnits="userSpaceOnUse">
<stop stop-color="#04BEFE"/>
<stop offset="1" stop-color="#5FF19D"/>
</linearGradient>
<linearGradient id="paint5_linear" x1="621.88" y1="114.479" x2="711.02" y2="114.479" gradientUnits="userSpaceOnUse">
<stop stop-color="#04BEFE"/>
<stop offset="1" stop-color="#5FF19D"/>
</linearGradient>
<linearGradient id="paint6_linear" x1="627.004" y1="82.5299" x2="709.156" y2="82.5299" gradientUnits="userSpaceOnUse">
<stop stop-color="#04BEFE"/>
<stop offset="1" stop-color="#5FF19D"/>
</linearGradient>
<linearGradient id="paint7_linear" x1="571" y1="38.16" x2="779.495" y2="37.0914" gradientUnits="userSpaceOnUse">
<stop offset="0.229167" stop-color="#676C72"/>
<stop offset="0.447917" stop-color="#3C434A"/>
<stop offset="0.801982" stop-color="#3A3A3A"/>
<stop offset="1" stop-color="#131414"/>
</linearGradient>
<linearGradient id="paint8_linear" x1="744" y1="80" x2="419" y2="-1.50003" gradientUnits="userSpaceOnUse">
<stop stop-color="#222324"/>
<stop offset="0.441123" stop-color="#565D64"/>
<stop offset="0.521964" stop-color="#63696D"/>
</linearGradient>
<linearGradient id="paint9_linear" x1="932.244" y1="861.982" x2="943.644" y2="964.779" gradientUnits="userSpaceOnUse">
<stop stop-color="#5FF19D" stop-opacity="0"/>
<stop offset="0.520833" stop-color="#8EEDF4" stop-opacity="0.15"/>
</linearGradient>
<linearGradient id="paint10_linear" x1="932.42" y1="901.585" x2="1211.01" y2="901.585" gradientUnits="userSpaceOnUse">
<stop stop-color="#5DF09E"/>
<stop offset="1" stop-color="#77CEFD"/>
</linearGradient>
<linearGradient id="paint11_linear" x1="928" y1="868.965" x2="1191.4" y2="868.965" gradientUnits="userSpaceOnUse">
<stop stop-color="#5DF09E"/>
<stop offset="1" stop-color="#8EEDF4"/>
</linearGradient>
<linearGradient id="paint12_linear" x1="949.875" y1="868.97" x2="1176.6" y2="868.97" gradientUnits="userSpaceOnUse">
<stop stop-color="#7AFAB0"/>
<stop offset="1" stop-color="#88DDFB"/>
</linearGradient>
<linearGradient id="paint13_linear" x1="1002.49" y1="871.12" x2="1039.39" y2="935.039" gradientUnits="userSpaceOnUse">
<stop stop-color="#04BEFE"/>
<stop offset="1" stop-color="#5FF19D"/>
</linearGradient>
<linearGradient id="paint14_linear" x1="1043.18" y1="838.298" x2="1085.25" y2="911.16" gradientUnits="userSpaceOnUse">
<stop stop-color="#04BEFE"/>
<stop offset="1" stop-color="#5FF19D"/>
</linearGradient>
<linearGradient id="paint15_linear" x1="1089.43" y1="817.183" x2="1128.2" y2="884.333" gradientUnits="userSpaceOnUse">
<stop stop-color="#04BEFE"/>
<stop offset="1" stop-color="#5FF19D"/>
</linearGradient>
<linearGradient id="paint16_linear" x1="177.897" y1="492.53" x2="193.822" y2="594.095" gradientUnits="userSpaceOnUse">
<stop stop-color="#5FF19D" stop-opacity="0"/>
<stop offset="0.520833" stop-color="#8EEDF4" stop-opacity="0.15"/>
</linearGradient>
<linearGradient id="paint17_linear" x1="1.77671e-05" y1="628.65" x2="182.849" y2="628.65" gradientUnits="userSpaceOnUse">
<stop stop-color="#5DF09E"/>
<stop offset="1" stop-color="#77CEFD"/>
</linearGradient>
<linearGradient id="paint18_linear" x1="18.8289" y1="611.173" x2="190.949" y2="612.167" gradientUnits="userSpaceOnUse">
<stop stop-color="#5DF09E"/>
<stop offset="0.03" stop-color="#92EFA1"/>
<stop offset="1" stop-color="#8BE2FF"/>
</linearGradient>
<linearGradient id="paint19_linear" x1="37.844" y1="610.161" x2="175.793" y2="610.161" gradientUnits="userSpaceOnUse">
<stop stop-color="#5DF09E"/>
<stop offset="1" stop-color="#8EEDF4"/>
</linearGradient>
<linearGradient id="paint20_linear" x1="107.792" y1="660.557" x2="151.695" y2="616.654" gradientUnits="userSpaceOnUse">
<stop stop-color="#04BEFE"/>
<stop offset="1" stop-color="#5FF19D"/>
</linearGradient>
<linearGradient id="paint21_linear" x1="78.5092" y1="640.884" x2="128.556" y2="590.837" gradientUnits="userSpaceOnUse">
<stop stop-color="#04BEFE"/>
<stop offset="1" stop-color="#5FF19D"/>
</linearGradient>
<linearGradient id="paint22_linear" x1="57.4046" y1="614.025" x2="103.528" y2="567.902" gradientUnits="userSpaceOnUse">
<stop stop-color="#04BEFE"/>
<stop offset="1" stop-color="#5FF19D"/>
</linearGradient>
<clipPath id="clip0">
<rect width="283.01" height="223.55" fill="white" transform="translate(928 776.245)"/>
</clipPath>
<clipPath id="clip1">
<rect width="191" height="180" fill="white" transform="translate(0 532)"/>
</clipPath>
</defs>
</svg>
