<svg width="1900" height="1000" viewBox="0 0 1900 1000" fill="none" xmlns="http://www.w3.org/2000/svg">
<mask id="mask0" mask-type="alpha" maskUnits="userSpaceOnUse" x="280" y="0" width="1339" height="795">
<rect x="280" width="1339" height="795" fill="#C4C4C4"/>
</mask>
<g mask="url(#mask0)">
<circle cx="949" cy="99.6025" r="642" fill="url(#paint0_radial)"/>
</g>
<path d="M1104 417L813 417L876.673 71L1020.72 71L1104 417Z" fill="url(#paint1_linear)"/>
<path d="M949.5 193C993.407 193 1029 157.407 1029 113.5C1029 69.5934 993.407 34 949.5 34C905.593 34 870 69.5934 870 113.5C870 157.407 905.593 193 949.5 193Z" fill="url(#paint2_linear)"/>
<path d="M949.949 175.329C983.849 175.329 1011.33 147.849 1011.33 113.949C1011.33 80.0501 983.849 52.5694 949.949 52.5694C916.05 52.5694 888.569 80.0501 888.569 113.949C888.569 147.849 916.05 175.329 949.949 175.329Z" fill="url(#paint3_linear)"/>
<g filter="url(#filter0_i)">
<path d="M987.154 135.128H986.659C986.367 135.128 986.097 135.128 985.777 135.083C983.337 135.032 980.937 135.004 978.672 135.004H977.772H976.873C973.86 135.004 970.769 135.066 967.683 135.213C964.597 135.36 961.404 135.496 958.177 135.694C955.226 135.881 951.994 136.142 948.369 136.487C944.923 136.798 941.5 137.161 938.2 137.568C934.681 137.976 931.247 138.423 927.678 138.932C926.767 139.068 925.868 139.181 924.968 139.317C924.069 139.453 923.17 139.6 922.259 139.725L921.905 139.776C921.343 139.872 920.809 139.946 920.219 140.048C920.123 140.048 918.015 140.495 917.706 141.457C917.668 141.649 917.681 141.847 917.742 142.033C917.803 142.218 917.911 142.385 918.054 142.516H918.116C918.369 142.718 918.632 142.907 918.903 143.082L943.636 157.477C945.606 158.594 947.828 159.179 950.089 159.175C952.34 159.18 954.555 158.595 956.514 157.477L984.911 140.936C986.214 140.075 987.345 138.974 988.244 137.693L988.492 137.342C988.615 137.144 988.75 136.934 988.874 136.713V136.674C988.935 136.54 988.962 136.393 988.954 136.246C988.946 136.1 988.903 135.957 988.829 135.83C988.632 135.457 988.065 135.185 987.154 135.128Z" fill="url(#paint4_linear)" fill-opacity="0.7"/>
<path d="M988.739 108.234H988.688C988.481 108.183 988.256 108.137 988.048 108.075H987.997C987.966 108.069 987.933 108.069 987.902 108.075C962.32 101.644 941.123 98.6669 921.208 98.6669C919.634 98.6669 918.437 98.6669 917.307 98.7065C910.511 99.1254 909.477 99.8387 909.477 103.145V126.92C909.477 127.837 909.246 129.184 909.96 129.847C910.674 130.509 912.164 130.243 913.097 130.215L916.644 130.152C919.106 130.09 921.556 130.005 924.018 129.92C929.297 129.711 934.552 129.433 939.819 129.111C951.724 128.369 963.613 127.339 975.49 126.127L976.969 126.003C977.621 125.912 978.273 125.867 978.88 125.805L983.556 125.392C990.718 124.492 990.684 124.412 990.684 120.92V111.46C990.701 108.409 989.667 108.596 988.739 108.234Z" fill="url(#paint5_linear)" fill-opacity="0.7"/>
<path d="M915.429 88.8454C915.562 88.852 915.693 88.869 915.823 88.8964L917.582 89.0832C919.909 89.3436 922.225 89.5813 924.547 89.8417C928.081 90.2191 931.614 90.5965 935.148 90.9739C939.308 91.4211 943.445 91.8513 947.593 92.3098C951.741 92.7684 955.89 93.1929 960.06 93.6401C963.617 94.0175 967.177 94.3949 970.74 94.7723L977.84 95.5422C979.627 95.729 981.426 95.8988 983.208 96.0233C984.119 96.0743 985.018 96.1252 985.94 96.1479C986.788 96.2585 987.648 96.2413 988.492 96.0969C988.65 96.0636 988.795 95.9827 988.908 95.8648C989.537 95.2195 989.104 93.6345 988.947 92.9155C988.636 91.6031 988.06 90.3691 987.256 89.2901C986.451 88.2111 985.435 87.3102 984.27 86.6434C983.849 86.4056 956.536 70.5384 956.536 70.5384C954.578 69.4184 952.363 68.833 950.111 68.8401C947.847 68.8358 945.62 69.4207 943.647 70.5384L915.913 86.666C915.682 86.8132 915.458 86.949 915.238 87.1132C915.019 87.2774 914.834 87.3962 914.676 87.5208L914.541 87.634C914.451 87.74 914.392 87.8698 914.372 88.0081C914.352 88.1465 914.372 88.2877 914.429 88.4152C914.592 88.7096 914.997 88.7718 915.429 88.8454Z" fill="url(#paint6_linear)" fill-opacity="0.7"/>
</g>
<g filter="url(#filter1_d)">
<rect x="860" width="180" height="54" fill="url(#paint7_linear)"/>
</g>
<g filter="url(#filter2_d)">
<rect x="850" y="40" width="200" height="42" rx="12" fill="url(#paint8_linear)"/>
</g>
<rect x="1138" y="796.054" width="284.904" height="162.582" transform="rotate(-30 1138 796.054)" fill="url(#paint9_linear)"/>
<g clip-path="url(#clip0)">
<path d="M1495.96 862.128C1495.96 861.758 1495.96 861.388 1495.96 861.018C1495.96 860.238 1495.96 859.458 1495.96 858.688C1495.96 858.488 1495.96 858.298 1495.96 858.108C1495.96 857.548 1495.96 856.988 1495.87 856.438C1495.87 856.438 1495.87 856.438 1495.87 856.368C1495.87 856.098 1495.87 855.838 1495.79 855.568C1495.74 855.078 1495.69 854.568 1495.63 854.098C1495.63 853.798 1495.53 853.498 1495.49 853.198C1495.45 852.898 1495.38 852.438 1495.31 852.068C1495.31 851.998 1495.31 851.938 1495.31 851.878C1495.25 851.568 1495.18 851.258 1495.11 850.948C1495.04 850.638 1494.94 850.118 1494.84 849.708L1494.59 848.768C1494.51 848.468 1494.44 848.168 1494.35 847.878L1494.26 847.588C1494.16 847.268 1494.06 846.958 1493.95 846.638C1493.84 846.318 1493.7 845.878 1493.56 845.508C1493.42 845.138 1493.33 844.888 1493.2 844.578C1493.07 844.268 1493.03 844.098 1492.93 843.858C1492.93 843.768 1492.84 843.678 1492.8 843.578C1492.44 842.748 1492.06 841.918 1491.65 841.118L1471.98 803.018C1472.39 803.818 1472.77 804.648 1473.13 805.478C1473.27 805.808 1473.4 806.138 1473.53 806.478C1473.66 806.818 1473.78 807.098 1473.89 807.408C1474 807.718 1474.16 808.158 1474.28 808.538C1474.4 808.918 1474.49 809.168 1474.59 809.538C1474.69 809.908 1474.81 810.328 1474.92 810.718C1475.03 811.108 1475.09 811.338 1475.17 811.658C1475.25 811.978 1475.36 812.488 1475.44 812.908C1475.52 813.328 1475.58 813.518 1475.64 813.828C1475.7 814.138 1475.79 814.708 1475.86 815.158C1475.86 815.448 1475.96 815.748 1476 816.048C1476.06 816.538 1476.11 817.048 1476.16 817.528C1476.16 817.788 1476.22 818.048 1476.24 818.308C1476.24 818.888 1476.32 819.478 1476.34 820.068C1476.34 820.258 1476.34 820.438 1476.34 820.628C1476.34 821.418 1476.34 822.198 1476.34 822.998C1476.34 823.348 1476.34 823.698 1476.34 824.058C1476.34 824.418 1476.34 824.978 1476.28 825.438C1476.22 825.898 1476.22 826.188 1476.18 826.568C1476.14 826.948 1476.11 827.468 1476.06 827.918C1475.97 828.778 1475.85 829.638 1475.72 830.498C1475.72 830.628 1475.72 830.768 1475.65 830.898C1475.53 831.628 1475.4 832.378 1475.25 833.118L1475.1 833.768C1474.96 834.468 1474.8 835.168 1474.63 835.878L1474.36 836.878C1474.2 837.468 1474.04 838.048 1473.87 838.648C1473.77 838.988 1473.66 839.328 1473.56 839.648C1473.35 840.318 1473.14 840.998 1472.9 841.648C1472.78 842.018 1472.65 842.388 1472.52 842.758C1472.28 843.428 1472.03 844.108 1471.77 844.758C1471.61 845.168 1471.46 845.578 1471.29 845.988C1471.2 846.218 1471.1 846.438 1471.01 846.668C1470.73 847.338 1470.44 848.018 1470.14 848.668C1470.07 848.828 1470.01 848.988 1469.93 849.148C1469.57 849.968 1469.18 850.788 1468.78 851.618C1468.69 851.818 1468.58 852.018 1468.49 852.218L1467.58 854.008C1467.37 854.398 1467.17 854.798 1466.95 855.198C1466.73 855.598 1466.4 856.198 1466.11 856.738L1465.44 857.928C1465.15 858.448 1464.84 858.928 1464.53 859.498L1463.82 860.668C1463.5 861.208 1463.16 861.748 1462.82 862.298C1462.58 862.678 1462.35 863.048 1462.1 863.428L1461.1 864.968C1460.8 865.408 1460.52 865.848 1460.22 866.288L1459.13 867.838C1458.82 868.278 1458.52 868.708 1458.2 869.148C1457.88 869.588 1457.43 870.198 1457.04 870.718C1456.65 871.238 1456.4 871.588 1456.04 872.018C1455.68 872.448 1455.21 873.088 1454.8 873.628L1453.8 874.908C1453.36 875.458 1452.9 876.008 1452.44 876.558L1451.44 877.798L1449.95 879.538L1448.95 880.708C1448.38 881.358 1447.79 882.008 1447.2 882.658C1446.91 882.978 1446.63 883.298 1446.34 883.658C1445.45 884.658 1444.55 885.658 1443.62 886.578C1442.48 887.768 1441.31 888.948 1440.13 890.118L1439.51 890.748C1438.37 891.868 1437.21 892.978 1436.04 894.078L1435.36 894.718C1434.15 895.844 1432.92 896.964 1431.68 898.078L1431.49 898.238C1430.28 899.318 1429.04 900.388 1427.79 901.448L1427.18 901.968C1425.44 903.438 1423.66 904.898 1421.86 906.328L1421.62 906.518C1419.74 908.008 1417.83 909.518 1415.9 910.918L1415.57 911.158C1414.28 912.158 1412.99 913.048 1411.68 913.978L1410.99 914.478C1409.65 915.428 1408.29 916.368 1406.93 917.298L1406.01 917.918L1402.95 919.918L1402.27 920.358C1401.05 921.144 1399.82 921.924 1398.59 922.698L1397.59 923.308L1395.01 924.888L1393.91 925.558L1390.91 927.318L1390.35 927.648C1389.21 928.308 1388.06 928.958 1386.91 929.648L1385.98 930.168C1385.13 930.638 1384.28 931.108 1383.42 931.568L1382.19 932.228L1379.97 933.398L1378.73 934.038L1376.3 935.278L1375.3 935.788L1371.89 937.458L1371.47 937.658L1368.47 939.088L1367.31 939.618L1365.02 940.618L1363.72 941.198L1361.52 942.198L1360.21 942.758L1357.93 943.758L1356.73 944.248L1353.86 945.328L1353.24 945.568C1352.07 946.028 1350.9 946.478 1349.73 946.918L1348.73 947.298L1346.21 948.218L1344.96 948.668L1342.55 949.508L1341.28 949.938L1338.7 950.798L1337.7 951.128L1334.04 952.278L1333.28 952.498L1330.36 953.358L1329.19 953.688L1326.32 954.478L1325.32 954.758L1321.54 955.758L1321.07 955.868C1319.85 956.168 1318.64 956.448 1317.43 956.718L1316.37 956.958C1315.02 957.248 1313.67 957.538 1312.37 957.808C1310.82 958.118 1309.28 958.398 1307.75 958.668L1306.92 958.808C1305.44 959.068 1303.92 959.298 1302.48 959.518L1301.23 959.688L1299.52 959.928L1298.1 960.108L1296.4 960.308L1294.99 960.458L1293.3 960.628L1291.91 960.748L1290.23 960.888L1288.97 960.978L1285.27 961.188H1284.86C1283.73 961.238 1282.6 961.268 1281.48 961.288H1280.48H1276.86C1275.68 961.288 1274.5 961.288 1273.34 961.188H1272.44C1271.51 961.188 1270.58 961.088 1269.66 961.018L1268.81 960.958C1267.67 960.868 1266.54 960.768 1265.42 960.648L1264.78 960.578L1262 960.228L1261.09 960.098C1259.98 959.928 1258.88 959.758 1257.8 959.558C1246.35 957.478 1237.06 953.688 1229.98 948.558C1228.44 947.438 1226.97 946.222 1225.58 944.918C1224.9 944.288 1224.25 943.628 1223.63 942.918C1221.18 940.306 1219.1 937.368 1217.46 934.188L1237.07 972.288C1243.53 984.838 1257.07 993.938 1277.41 997.638C1278.49 997.838 1279.59 998.008 1280.7 998.178L1281.61 998.308C1282.53 998.438 1283.45 998.548 1284.39 998.658L1285.03 998.728C1286.15 998.848 1287.28 998.958 1288.42 999.038C1288.7 999.038 1288.99 999.038 1289.27 999.098C1290.19 999.168 1291.12 999.218 1292.05 999.268H1292.95C1294.11 999.318 1295.29 999.348 1296.47 999.368H1300.11H1301.11C1302.22 999.368 1303.34 999.318 1304.47 999.268H1304.78C1306 999.268 1307.23 999.138 1308.47 999.058H1308.88L1309.74 998.988L1311.41 998.848L1312.81 998.728L1314.49 998.558L1315.9 998.408L1317.6 998.208L1319.01 998.028L1320.74 997.798C1321.03 997.798 1321.32 997.718 1321.62 997.678L1321.98 997.618C1323.46 997.398 1324.93 997.168 1326.42 996.908L1327.25 996.768C1328.79 996.498 1330.32 996.218 1331.87 995.908C1333.21 995.638 1334.56 995.348 1335.87 995.058L1336.93 994.818C1338.14 994.548 1339.35 994.268 1340.57 993.968L1340.94 993.888H1341.04L1344.82 992.888L1345.82 992.608L1348.7 991.818L1349.36 991.638L1349.86 991.488C1350.86 991.208 1351.81 990.928 1352.79 990.628L1353.54 990.408C1354.76 990.038 1355.98 989.648 1357.2 989.258L1357.43 989.188L1358.22 988.928L1360.86 988.018L1362.13 987.588C1362.93 987.318 1363.74 987.038 1364.54 986.748C1364.8 986.658 1365.05 986.578 1365.3 986.478L1365.79 986.308C1366.63 985.998 1367.47 985.698 1368.3 985.378L1369.3 984.998L1372.81 983.648H1372.88L1373.42 983.428L1376.27 982.278L1377.47 981.788L1379.75 980.788C1379.94 980.708 1380.13 980.638 1380.31 980.548L1381.06 980.228L1383.26 979.228L1384.56 978.648L1386.85 977.648L1387.71 977.258L1388.02 977.118L1391.02 975.678L1391.41 975.498C1392.55 974.948 1393.69 974.388 1394.82 973.818L1395.05 973.708L1395.83 973.308L1398.26 972.078L1399.5 971.428L1401.72 970.258L1402.43 969.888L1402.96 969.598L1405.49 968.208L1406.49 967.678C1407.64 967.038 1408.78 966.388 1409.92 965.678L1410.03 965.618L1410.48 965.358L1413.48 963.588L1414.58 962.918L1417.16 961.348L1417.83 960.928L1418.14 960.738C1419.37 959.958 1420.6 959.174 1421.82 958.388L1422.5 957.938C1423.5 957.268 1424.5 956.598 1425.56 955.938L1426.11 955.568L1426.48 955.318C1427.84 954.388 1429.2 953.448 1430.54 952.498L1431.24 951.998C1432.57 951.071 1433.86 950.131 1435.11 949.178L1435.38 948.988H1435.45C1437.38 947.548 1439.28 946.081 1441.17 944.588L1441.41 944.398C1443.22 942.968 1444.99 941.508 1446.74 940.038L1446.93 939.878L1447.34 939.528C1448.59 938.461 1449.83 937.388 1451.05 936.308L1451.23 936.148C1452.47 935.034 1453.7 933.914 1454.91 932.788C1455.14 932.578 1455.37 932.368 1455.59 932.148C1456.76 931.048 1457.92 929.938 1459.06 928.818L1459.69 928.188C1460.86 927.018 1462.03 925.838 1463.17 924.648C1464.1 923.648 1465 922.708 1465.89 921.738C1466.2 921.408 1466.48 921.078 1466.78 920.738C1467.36 920.098 1467.94 919.458 1468.5 918.818L1469.5 917.638C1470 917.068 1470.5 916.488 1470.98 915.908L1471.98 914.668C1472.43 914.118 1472.89 913.568 1473.33 913.018L1474.33 911.738C1474.75 911.198 1475.17 910.668 1475.57 910.138C1475.97 909.608 1476.23 909.258 1476.57 908.818C1476.91 908.378 1477.35 907.818 1477.72 907.258L1478.66 905.938C1479.02 905.428 1479.39 904.938 1479.74 904.398C1480.09 903.858 1480.33 903.518 1480.62 903.068C1480.91 902.618 1481.17 902.268 1481.43 901.858L1481.63 901.548L1482.36 900.398C1482.7 899.858 1483.04 899.318 1483.36 898.788L1484.07 897.608C1484.38 897.078 1484.69 896.608 1484.98 896.038L1485.65 894.848C1485.94 894.328 1486.22 893.848 1486.49 893.308C1486.76 892.768 1486.91 892.508 1487.12 892.118L1487.49 891.408C1487.68 891.048 1487.85 890.688 1488.03 890.328C1488.12 890.128 1488.23 889.928 1488.32 889.728C1488.72 888.898 1489.11 888.078 1489.47 887.268C1489.55 887.098 1489.61 886.938 1489.69 886.778C1489.98 886.108 1490.27 885.428 1490.55 884.778C1490.64 884.548 1490.74 884.328 1490.83 884.098C1490.92 883.868 1490.98 883.738 1491.05 883.568C1491.12 883.398 1491.22 883.108 1491.31 882.868C1491.57 882.188 1491.82 881.508 1492.06 880.868L1492.45 879.758C1492.68 879.078 1492.89 878.398 1493.1 877.758C1493.17 877.528 1493.26 877.288 1493.32 877.058C1493.38 876.828 1493.38 876.848 1493.41 876.738C1493.59 876.138 1493.74 875.548 1493.9 874.958L1494.17 873.958C1494.34 873.248 1494.5 872.548 1494.65 871.838C1494.65 871.648 1494.74 871.458 1494.78 871.258C1494.78 871.238 1494.78 871.217 1494.78 871.198C1494.93 870.458 1495.06 869.718 1495.18 868.978C1495.18 868.848 1495.18 868.718 1495.25 868.578C1495.39 867.718 1495.5 866.858 1495.59 865.998C1495.64 865.558 1495.66 865.138 1495.7 864.708C1495.74 864.278 1495.78 863.928 1495.8 863.548C1495.82 863.168 1495.94 862.578 1495.96 862.128Z" fill="url(#paint10_linear)"/>
<path d="M1446.5 892C1396.27 950 1315.24 972.932 1259.5 961.5C1204.86 951.61 1197.76 900.858 1245.76 850.628C1293.76 800.398 1376.98 767.738 1431.62 777.678C1486.26 787.618 1492.83 838.5 1446.5 892Z" fill="url(#paint11_linear)"/>
<path d="M1422.31 882.688C1384.64 922.098 1319.31 947.688 1276.49 939.928C1233.67 932.168 1229.42 893.868 1267.09 854.458C1304.76 815.048 1370.04 789.458 1412.91 797.218C1455.78 804.978 1459.98 843.288 1422.31 882.688Z" fill="url(#paint12_linear)"/>
<path d="M1270.32 861.618C1307.98 822.208 1373.27 796.618 1416.13 804.378C1430.97 807.078 1441.13 813.378 1446.61 822.208C1442.83 809.738 1431.52 800.608 1412.91 797.208C1370.04 789.418 1304.76 815.018 1267.09 854.458C1242.45 880.228 1235.73 905.458 1246.02 922.098C1241.1 905.848 1249 883.918 1270.32 861.618Z" fill="#6DD1FC" fill-opacity="0.5"/>
<g filter="url(#filter3_i)">
<path d="M1337.74 919.87L1337.51 919.465C1337.37 919.226 1337.24 919.006 1337.15 918.708C1336.07 916.674 1334.98 914.689 1333.91 912.838L1333.49 912.102L1333.06 911.367C1331.64 908.905 1330.1 906.427 1328.44 904.021C1326.78 901.615 1325.09 899.113 1323.29 896.633C1321.64 894.368 1319.76 891.933 1317.58 889.243C1315.52 886.673 1313.41 884.161 1311.29 881.787C1309.07 879.234 1306.84 876.781 1304.46 874.267C1303.84 873.63 1303.26 872.984 1302.65 872.357C1302.04 871.729 1301.41 871.111 1300.81 870.465L1300.57 870.216C1300.18 869.833 1299.82 869.454 1299.41 869.053C1299.36 868.975 1297.75 867.606 1296.29 868.115C1296.01 868.236 1295.74 868.403 1295.51 868.6C1295.29 868.797 1295.11 869.017 1295 869.238L1295.03 869.289C1294.87 869.655 1294.73 870.02 1294.62 870.381L1286.55 901.998C1285.95 904.492 1286.19 906.773 1287.26 908.618C1288.32 910.462 1290.17 911.809 1292.62 912.524L1328.72 922.636C1330.51 923.019 1332.56 923.072 1334.74 922.792L1335.34 922.716C1335.67 922.66 1336.02 922.605 1336.38 922.531L1336.43 922.499C1336.65 922.443 1336.86 922.35 1337.06 922.227C1337.26 922.104 1337.43 921.956 1337.57 921.795C1337.99 921.338 1338.09 920.659 1337.74 919.87Z" fill="url(#paint13_linear)" fill-opacity="0.7"/>
<path d="M1375.38 899.865L1375.36 899.824C1375.33 899.613 1375.29 899.394 1375.27 899.174L1375.25 899.133C1375.24 899.102 1375.23 899.076 1375.21 899.055C1371.95 873.052 1366.04 853.367 1356.64 837.088C1355.89 835.802 1355.33 834.823 1354.74 833.931C1350.96 828.708 1349.49 828.427 1344.96 831.046L1312.34 849.876C1311.09 850.602 1309.13 851.48 1308.56 852.589C1307.99 853.697 1309.05 854.703 1309.53 855.444L1311.29 858.294C1312.54 860.257 1313.81 862.193 1315.09 864.138C1317.87 868.286 1320.73 872.363 1323.66 876.412C1330.29 885.557 1337.32 894.458 1344.58 903.207L1345.45 904.317C1345.89 904.778 1346.26 905.275 1346.63 905.722L1349.4 909.218C1354.02 914.358 1354.11 914.268 1358.9 911.502L1371.88 904.01C1376.07 901.608 1375.32 900.91 1375.38 899.865Z" fill="url(#paint14_linear)" fill-opacity="0.7"/>
<path d="M1367.38 824.586C1367.44 824.7 1367.48 824.821 1367.5 824.948L1368.07 826.534C1368.81 828.643 1369.58 830.724 1370.32 832.828C1371.47 836.015 1372.62 839.203 1373.77 842.39C1375.12 846.144 1376.48 849.867 1377.81 853.621C1379.14 857.375 1380.51 861.102 1381.87 864.865C1383.03 868.071 1384.19 871.28 1385.36 874.492L1387.65 880.904C1388.24 882.513 1388.85 884.118 1389.52 885.673C1389.88 886.458 1390.24 887.234 1390.64 888.005C1390.89 888.786 1391.32 889.476 1391.92 890.051C1392.04 890.154 1392.22 890.208 1392.43 890.207C1393.61 890.21 1395.58 888.601 1396.49 887.903C1398.15 886.609 1399.57 885.162 1400.67 883.649C1401.77 882.137 1402.53 880.593 1402.89 879.113C1403.02 878.58 1411.9 843.688 1411.9 843.688C1412.51 841.2 1412.27 838.926 1411.19 837.091C1410.13 835.237 1408.28 833.88 1405.81 833.152L1370.6 823.255C1370.29 823.184 1370 823.107 1369.67 823.058C1369.34 823.009 1369.09 822.952 1368.84 822.922L1368.63 822.901C1368.44 822.911 1368.23 822.966 1368.03 823.059C1367.83 823.152 1367.65 823.28 1367.5 823.428C1367.17 823.794 1367.28 824.174 1367.38 824.586Z" fill="url(#paint15_linear)" fill-opacity="0.7"/>
</g>
</g>
<rect x="406.851" y="426.602" width="201.501" height="162.582" transform="rotate(38.3385 406.851 426.602)" fill="url(#paint16_linear)"/>
<g clip-path="url(#clip1)">
<path d="M467.849 674.674C467.41 675.196 466.949 675.71 466.48 676.209L466.004 676.686C465.677 677.014 465.35 677.342 465.008 677.654C464.814 677.841 464.606 678.012 464.405 678.191C464.085 678.474 463.766 678.75 463.438 679.018C463.111 679.286 462.992 679.376 462.761 679.555C462.531 679.733 462.1 680.061 461.757 680.3C461.415 680.538 461.281 680.642 461.014 680.806C460.746 680.97 460.27 681.276 459.943 681.499C459.697 681.656 459.452 681.812 459.199 681.961C458.82 682.185 458.455 682.401 458.031 682.617C457.786 682.751 457.54 682.885 457.288 683.012C456.849 683.243 456.395 683.459 455.934 683.668C455.718 683.772 455.51 683.876 455.287 683.973C454.647 684.256 453.993 684.525 453.331 684.778L452.818 684.964C452.297 685.158 451.762 685.344 451.219 685.516L450.579 685.717C449.954 685.91 449.322 686.089 448.675 686.253L448.4 686.328C447.656 686.514 446.912 686.685 446.169 686.842L445.529 686.961C444.941 687.073 444.346 687.177 443.744 687.267L443.052 687.371C442.249 687.483 441.438 687.587 440.605 687.669H440.546C439.735 687.751 438.902 687.811 438.062 687.855L437.281 687.893C436.641 687.893 435.994 687.937 435.34 687.945H434.559C433.666 687.945 432.759 687.945 431.837 687.945L429.94 687.855L429.286 687.811L428.021 687.714L427.278 687.639L426.125 687.527L425.292 687.431C424.935 687.386 424.548 687.349 424.221 687.296C423.477 687.2 422.689 687.088 421.923 686.969L421.566 686.909C420.911 686.805 420.257 686.693 419.595 686.566L418.851 686.425C418.316 686.32 417.773 686.216 417.23 686.097L416.434 685.933L414.664 685.523L414.076 685.389C413.288 685.195 412.507 685.001 411.719 684.785L411.198 684.644C410.581 684.48 409.963 684.301 409.339 684.122L408.543 683.884L406.899 683.384L406.111 683.131L404.207 682.498L403.708 682.326L402.615 681.946L401.626 681.589L400.533 681.179L399.536 680.806L398.42 680.367L397.454 679.979L396.331 679.517C396.011 679.383 395.683 679.257 395.364 679.115L394.256 678.638L393.281 678.213L392.166 677.707L391.199 677.267L389.934 676.671L389.057 676.261L387.733 675.605L386.989 675.24L384.981 674.212L384.698 674.07C384.081 673.743 383.464 673.422 382.854 673.087C382.579 672.945 382.304 672.789 382.036 672.64C381.619 672.416 381.203 672.193 380.786 671.954C380.504 671.805 380.229 671.641 379.953 671.485L378.734 670.792L377.841 670.27C377.454 670.047 377.097 669.823 376.688 669.592L375.751 669.026L374.651 668.363L373.676 667.752L372.628 667.096L371.661 666.47L370.597 665.792L369.645 665.159L368.596 664.458L367.644 663.81L366.603 663.065L365.651 662.394C365.309 662.148 364.967 661.917 364.632 661.649L363.673 660.956L362.661 660.211L361.724 659.511L360.713 658.766L359.783 658.02L358.787 657.275L357.849 656.53L356.875 655.785L355.953 655.04C355.626 654.779 355.298 654.518 354.979 654.25L354.071 653.505L353.104 652.7L352.204 651.955L351.245 651.135L350.353 650.346L349.415 649.519L348.523 648.714L347.601 647.872L346.723 647.06L345.808 646.195L344.953 645.368C344.648 645.078 344.343 644.794 344.046 644.496L343.198 643.669L342.305 642.783C342.023 642.507 341.747 642.224 341.472 641.941L340.587 641.046L339.977 640.413C339.509 639.929 339.048 639.444 338.587 638.923L337.939 638.23C337.471 637.731 337.01 637.224 336.549 636.74L336.021 636.166C335.403 635.473 334.786 634.772 334.176 634.072L333.864 633.714C333.358 633.133 332.852 632.537 332.376 631.948L331.796 631.248C331.38 630.749 330.971 630.242 330.562 629.758L329.989 629.013C329.52 628.431 329.059 627.85 328.606 627.262L328.263 626.829C327.698 626.084 327.148 625.339 326.597 624.631L326.173 624.05C325.764 623.499 325.363 622.947 324.969 622.389L324.53 621.778C323.786 620.719 323.042 619.654 322.299 618.581L321.986 618.097C321.257 617.009 320.551 615.911 319.867 614.803L319.621 614.416C318.922 613.276 318.238 612.136 317.576 610.981L317.427 610.727C316.743 609.53 316.076 608.323 315.426 607.106C315.025 606.361 314.638 605.616 314.259 604.871L313.753 603.827C313.53 603.388 313.314 602.941 313.106 602.501C312.898 602.061 312.779 601.808 312.615 601.458C312.451 601.108 312.213 600.594 312.02 600.161C311.827 599.729 311.715 599.416 311.559 599.103L311.016 597.844C310.875 597.486 310.733 597.099 310.585 596.786C310.436 596.473 310.25 595.951 310.094 595.542C309.938 595.132 309.819 594.841 309.692 594.491C309.566 594.141 309.387 593.679 309.239 593.269L308.867 592.218C308.733 591.823 308.591 591.421 308.458 591.019L308.123 589.983C307.996 589.588 307.877 589.193 307.758 588.798C307.639 588.403 307.55 588.113 307.454 587.77L307.186 586.801C306.933 585.877 306.695 584.961 306.479 584.052C306.463 584.003 306.45 583.953 306.442 583.903C306.219 582.949 306.026 582.01 305.847 581.079L305.713 580.334C305.564 579.514 305.431 578.694 305.312 577.882C305.312 577.763 305.274 577.651 305.26 577.532C305.133 576.63 305.036 575.736 304.955 574.85C304.955 574.626 304.917 574.402 304.895 574.171C304.836 573.421 304.791 572.676 304.761 571.936C304.761 571.787 304.761 571.631 304.761 571.474C304.761 570.617 304.761 569.775 304.761 568.933V568.33C304.761 567.629 304.806 566.944 304.858 566.258C304.858 566.087 304.858 565.908 304.858 565.744C304.925 564.932 305.007 564.135 305.111 563.352C305.111 563.173 305.163 563.002 305.185 562.823C305.282 562.175 305.386 561.527 305.512 560.893C305.512 560.714 305.579 560.536 305.609 560.357C305.765 559.612 305.944 558.867 306.137 558.121C306.174 557.98 306.219 557.838 306.256 557.697C306.427 557.078 306.613 556.475 306.814 555.879C306.866 555.7 306.925 555.521 306.985 555.35C307.23 554.649 307.491 553.956 307.773 553.286C307.818 553.174 307.87 553.077 307.915 552.965C308.168 552.384 308.435 551.81 308.718 551.244C308.8 551.08 308.882 550.909 308.971 550.745C309.298 550.104 309.648 549.471 310.019 548.852L310.131 548.681C310.473 548.114 310.875 547.57 311.217 547.026L311.544 546.572C311.968 545.991 312.399 545.417 312.861 544.866L293.144 568.516C292.69 569.067 292.251 569.641 291.828 570.222L291.508 570.677C291.128 571.221 290.764 571.765 290.422 572.331L290.31 572.502C289.938 573.121 289.567 573.754 289.254 574.395C289.172 574.559 289.091 574.73 289.001 574.894C288.726 575.461 288.451 576.034 288.206 576.615C288.153 576.72 288.109 576.824 288.064 576.936C287.782 577.606 287.521 578.299 287.276 579L287.097 579.529C286.897 580.125 286.718 580.729 286.547 581.347C286.502 581.489 286.458 581.63 286.421 581.772C286.227 582.517 286.056 583.262 285.9 584.007C285.863 584.186 285.833 584.365 285.796 584.544C285.677 585.177 285.565 585.825 285.476 586.473C285.476 586.652 285.424 586.824 285.394 587.003C285.298 587.748 285.208 588.582 285.149 589.394C285.149 589.558 285.149 589.737 285.112 589.909C285.067 590.587 285.037 591.28 285.015 591.98C285.015 592.181 285.015 592.382 285.015 592.583C285.015 593.418 285.015 594.268 285.015 595.124V595.586C285.015 596.331 285.097 597.077 285.156 597.822C285.156 598.053 285.193 598.276 285.216 598.5C285.298 599.386 285.394 600.281 285.521 601.182C285.521 601.301 285.521 601.413 285.573 601.532C285.684 602.345 285.818 603.164 285.967 603.984L286.101 604.729C286.279 605.66 286.473 606.599 286.696 607.553C286.712 607.602 286.724 607.652 286.733 607.702C286.949 608.611 287.187 609.528 287.439 610.452C287.477 610.578 287.506 610.705 287.536 610.832L287.715 611.42C287.811 611.763 287.908 612.106 288.012 612.449C288.116 612.791 288.258 613.238 288.384 613.633C288.51 614.028 288.6 614.326 288.719 614.669C288.838 615.012 288.986 615.466 289.128 615.869C289.269 616.271 289.373 616.569 289.5 616.919C289.626 617.27 289.797 617.731 289.946 618.141L290.348 619.192C290.511 619.602 290.675 620.019 290.846 620.436L291.277 621.494C291.456 621.912 291.634 622.336 291.82 622.754C292.006 623.171 292.125 623.454 292.281 623.812C292.437 624.169 292.675 624.676 292.876 625.108L293.36 626.151C293.575 626.598 293.791 627.038 294.014 627.485C294.237 627.932 294.349 628.171 294.52 628.513L294.609 628.7C294.959 629.385 295.316 630.078 295.688 630.771C296.327 631.988 296.994 633.195 297.688 634.392C297.733 634.482 297.785 634.564 297.83 634.646C298.494 635.793 299.178 636.936 299.882 638.073L300.128 638.476C300.812 639.579 301.516 640.674 302.24 641.762L302.56 642.246C303.274 643.319 304.017 644.385 304.791 645.443L304.977 645.711C305.059 645.823 305.141 645.942 305.23 646.054C305.624 646.613 306.026 647.164 306.427 647.708L306.859 648.297C307.409 649.042 307.959 649.787 308.517 650.487L308.874 650.942C309.328 651.523 309.781 652.104 310.243 652.678L310.823 653.423C311.232 653.93 311.641 654.429 312.057 654.913L312.637 655.606C313.136 656.202 313.641 656.798 314.125 657.387C314.229 657.499 314.326 657.618 314.43 657.737C315.04 658.438 315.657 659.138 316.282 659.831L316.81 660.412C317.271 660.912 317.732 661.418 318.201 661.903L318.848 662.596C319.309 663.092 319.77 663.589 320.231 664.086C320.365 664.227 320.499 664.376 320.64 664.51L320.848 664.727L321.726 665.621L322.559 666.463L323.451 667.342L324.307 668.184L325.199 669.041L326.069 669.875L326.984 670.725L327.862 671.537C328.167 671.82 328.472 672.103 328.784 672.379L329.669 673.184L330.606 674.011L331.506 674.801L332.451 675.613L333.358 676.358L334.325 677.163L335.232 677.908L336.207 678.698L337.136 679.443L338.111 680.188L339.048 680.933L340.037 681.678L340.974 682.423L341.985 683.168L342.923 683.869L343.941 684.614L344.886 685.299L345.912 686.045L346.864 686.715L347.92 687.46L348.85 688.101L349.914 688.802L350.858 689.435L351.922 690.12L352.874 690.731L353.952 691.41L354.904 691.998L356.027 692.684L356.935 693.235L358.102 693.921L358.987 694.435L360.229 695.18L361.033 695.634L362.356 696.379L363.1 696.789L364.796 697.683L365.45 698.034L367.235 698.943L368.016 699.323L369.318 699.964L370.203 700.381L371.393 700.94L372.352 701.372L373.483 701.886L374.45 702.303L375.565 702.788C375.885 702.929 376.212 703.056 376.532 703.19L377.655 703.652L378.63 704.039L379.738 704.479L380.749 704.859L381.82 705.261L382.824 705.619L383.903 705.999H384.007L384.401 706.133L386.305 706.767L387.101 707.012C387.644 707.191 388.194 707.355 388.744 707.519L389.54 707.758L391.385 708.279L391.92 708.421C392.709 708.637 393.489 708.831 394.27 709.024L394.865 709.158L396.635 709.568L397.431 709.732L399.045 710.06L399.789 710.202C400.443 710.328 401.098 710.44 401.752 710.544L402.117 710.604C402.861 710.723 403.649 710.835 404.415 710.932H404.586L405.553 711.021L406.378 711.118L407.539 711.23L408.282 711.304L409.562 711.401L410.194 711.446L412.098 711.535C413.02 711.535 413.927 711.58 414.82 711.535H415.608C416.27 711.535 416.917 711.535 417.557 711.483L418.301 711.446C419.149 711.401 419.981 711.342 420.8 711.26H420.859C421.685 711.178 422.495 711.073 423.291 710.962L423.983 710.857C424.585 710.76 425.18 710.664 425.775 710.552L426.407 710.433C427.171 710.279 427.915 710.107 428.639 709.918L428.921 709.844C429.568 709.68 430.2 709.494 430.825 709.307L431.457 709.106C432 708.927 432.536 708.749 433.064 708.555L433.57 708.369C434.194 708.13 434.812 707.884 435.414 707.623L435.533 707.564L436.18 707.258C436.634 707.05 437.088 706.834 437.534 706.603C437.787 706.476 438.032 706.342 438.277 706.208C438.672 705.992 439.021 705.776 439.438 705.552L440.181 705.09C440.548 704.866 440.905 704.635 441.252 704.397L441.996 703.89C442.338 703.644 442.666 703.399 443 703.145C443.335 702.892 443.454 702.795 443.67 702.609C444.004 702.341 444.324 702.065 444.644 701.782C444.845 701.603 445.053 701.431 445.246 701.245C445.588 700.932 445.916 700.604 446.236 700.277L446.719 699.8C447.188 699.3 447.641 698.794 448.08 698.309L467.849 674.674Z" fill="url(#paint17_linear)"/>
<path d="M467.446 675.097C487.781 650.696 469.56 601.885 426.749 566.073C383.937 530.261 332.746 521.01 312.411 545.41C292.076 569.811 310.297 618.623 353.109 654.435C395.92 690.247 447.111 699.497 467.446 675.097Z" fill="url(#paint18_linear)"/>
<path d="M454.277 661.962C470.462 642.541 455.632 603.417 421.154 574.576C386.676 545.735 345.605 538.098 329.42 557.519C313.235 576.94 328.064 616.064 362.542 644.905C397.021 673.746 438.092 681.382 454.277 661.962Z" fill="url(#paint19_linear)"/>
<path d="M452.185 612.173C433.741 577.428 391.771 548.301 358.474 547.123C344.09 546.617 333.678 551.4 327.981 559.791C333.871 555.737 341.844 553.613 351.669 553.956C384.988 555.134 426.958 584.26 445.38 619.013C455.867 638.759 456.492 656.076 448.958 667.126C463.022 657.439 465.186 636.68 452.185 612.173Z" fill="#6DD1FC" fill-opacity="0.5"/>
<g filter="url(#filter4_i)">
<path d="M424.078 610.917L423.8 611.195C423.636 611.359 423.484 611.51 423.27 611.656C421.862 612.988 420.494 614.314 419.222 615.586L418.717 616.091L418.212 616.596C416.52 618.287 414.831 620.07 413.209 621.913C411.587 623.756 409.897 625.65 408.234 627.61C406.717 629.407 405.098 631.418 403.322 633.712C401.621 635.881 399.971 638.074 398.424 640.233C396.755 642.514 395.162 644.778 393.541 647.165C393.131 647.778 392.711 648.368 392.308 648.975C391.906 649.582 391.511 650.197 391.093 650.802L390.933 651.039C390.689 651.427 390.445 651.782 390.19 652.19C390.136 652.243 389.288 653.762 389.837 654.658C389.96 654.823 390.116 654.965 390.289 655.07C390.463 655.175 390.648 655.24 390.828 655.257L390.862 655.222C391.156 655.232 391.445 655.227 391.729 655.206L416.42 652.125C418.364 651.857 420.051 651.048 421.318 649.777C422.586 648.517 423.39 646.834 423.65 644.895L427.178 616.536C427.263 615.158 427.071 613.697 426.615 612.23L426.49 611.827C426.411 611.609 426.329 611.376 426.233 611.141L426.203 611.111C426.137 610.977 426.042 610.851 425.928 610.745C425.813 610.64 425.682 610.557 425.545 610.503C425.154 610.333 424.631 610.448 424.078 610.917Z" fill="url(#paint20_linear)" fill-opacity="0.7"/>
<path d="M404.78 589.84L404.752 589.868C404.597 589.946 404.436 590.039 404.273 590.109L404.245 590.137C404.222 590.15 404.204 590.168 404.191 590.191C385.002 599.726 370.866 609.392 359.684 620.573C358.801 621.457 358.129 622.129 357.524 622.793C354.023 626.923 353.978 628.039 356.459 630.52L374.305 648.367C374.994 649.055 375.876 650.196 376.774 650.292C377.672 650.388 378.308 649.352 378.811 648.807L380.755 646.769C382.091 645.34 383.403 643.901 384.722 642.455C387.528 639.334 390.27 636.175 392.985 632.976C399.113 625.735 405.014 618.287 410.773 610.709L411.51 609.786C411.808 609.352 412.14 608.952 412.434 608.564L414.749 605.628C418.094 600.932 418.016 600.892 415.394 598.27L408.294 591.17C406.013 588.87 405.573 589.591 404.78 589.84Z" fill="url(#paint21_linear)" fill-opacity="0.7"/>
<path d="M349.068 616.445C349.147 616.376 349.234 616.315 349.327 616.263L350.455 615.415C351.957 614.304 353.436 613.182 354.935 612.074C357.202 610.373 359.469 608.673 361.736 606.972C364.408 604.972 367.053 602.973 369.726 600.988C372.4 599.003 375.047 596.993 377.725 594.987C380.004 593.273 382.286 591.558 384.571 589.84L389.134 586.432C390.278 585.569 391.415 584.687 392.509 583.78C393.059 583.307 393.602 582.84 394.137 582.339C394.696 581.946 395.166 581.45 395.531 580.868C395.595 580.754 395.616 580.612 395.59 580.461C395.46 579.623 394.027 578.676 393.399 578.225C392.239 577.414 390.989 576.811 389.728 576.453C388.466 576.095 387.22 575.989 386.065 576.142C385.65 576.201 358.405 579.625 358.405 579.625C356.465 579.883 354.782 580.687 353.523 581.957C352.249 583.225 351.438 584.914 351.169 586.861L347.703 614.538C347.685 614.778 347.66 615.006 347.66 615.252C347.661 615.499 347.646 615.692 347.651 615.874L347.66 616.035C347.689 616.165 347.753 616.295 347.846 616.41C347.939 616.525 348.056 616.62 348.183 616.684C348.496 616.813 348.77 616.633 349.068 616.445Z" fill="url(#paint22_linear)" fill-opacity="0.7"/>
</g>
</g>
<defs>
<filter id="filter0_i" x="909.441" y="68.8401" width="81.2429" height="92.3354" filterUnits="userSpaceOnUse" color-interpolation-filters="sRGB">
<feFlood flood-opacity="0" result="BackgroundImageFix"/>
<feBlend mode="normal" in="SourceGraphic" in2="BackgroundImageFix" result="shape"/>
<feColorMatrix in="SourceAlpha" type="matrix" values="0 0 0 0 0 0 0 0 0 0 0 0 0 0 0 0 0 0 127 0" result="hardAlpha"/>
<feOffset dy="2"/>
<feGaussianBlur stdDeviation="2"/>
<feComposite in2="hardAlpha" operator="arithmetic" k2="-1" k3="1"/>
<feColorMatrix type="matrix" values="0 0 0 0 0 0 0 0 0 0 0 0 0 0 0 0 0 0 0.15 0"/>
<feBlend mode="normal" in2="shape" result="effect1_innerShadow"/>
</filter>
<filter id="filter1_d" x="856" y="0" width="188" height="62" filterUnits="userSpaceOnUse" color-interpolation-filters="sRGB">
<feFlood flood-opacity="0" result="BackgroundImageFix"/>
<feColorMatrix in="SourceAlpha" type="matrix" values="0 0 0 0 0 0 0 0 0 0 0 0 0 0 0 0 0 0 127 0"/>
<feOffset dy="4"/>
<feGaussianBlur stdDeviation="2"/>
<feColorMatrix type="matrix" values="0 0 0 0 0 0 0 0 0 0 0 0 0 0 0 0 0 0 0.25 0"/>
<feBlend mode="normal" in2="BackgroundImageFix" result="effect1_dropShadow"/>
<feBlend mode="normal" in="SourceGraphic" in2="effect1_dropShadow" result="shape"/>
</filter>
<filter id="filter2_d" x="838" y="32" width="224" height="66" filterUnits="userSpaceOnUse" color-interpolation-filters="sRGB">
<feFlood flood-opacity="0" result="BackgroundImageFix"/>
<feColorMatrix in="SourceAlpha" type="matrix" values="0 0 0 0 0 0 0 0 0 0 0 0 0 0 0 0 0 0 127 0"/>
<feOffset dy="4"/>
<feGaussianBlur stdDeviation="6"/>
<feColorMatrix type="matrix" values="0 0 0 0 0 0 0 0 0 0 0 0 0 0 0 0 0 0 0.5 0"/>
<feBlend mode="normal" in2="BackgroundImageFix" result="effect1_dropShadow"/>
<feBlend mode="normal" in="SourceGraphic" in2="effect1_dropShadow" result="shape"/>
</filter>
<filter id="filter3_i" x="1286.23" y="822.901" width="126" height="102.068" filterUnits="userSpaceOnUse" color-interpolation-filters="sRGB">
<feFlood flood-opacity="0" result="BackgroundImageFix"/>
<feBlend mode="normal" in="SourceGraphic" in2="BackgroundImageFix" result="shape"/>
<feColorMatrix in="SourceAlpha" type="matrix" values="0 0 0 0 0 0 0 0 0 0 0 0 0 0 0 0 0 0 127 0" result="hardAlpha"/>
<feOffset dy="2"/>
<feGaussianBlur stdDeviation="2"/>
<feComposite in2="hardAlpha" operator="arithmetic" k2="-1" k3="1"/>
<feColorMatrix type="matrix" values="0 0 0 0 0 0 0 0 0 0 0 0 0 0 0 0 0 0 0.15 0"/>
<feBlend mode="normal" in2="shape" result="effect1_innerShadow"/>
</filter>
<filter id="filter4_i" x="347.65" y="576.074" width="79.5477" height="81.1831" filterUnits="userSpaceOnUse" color-interpolation-filters="sRGB">
<feFlood flood-opacity="0" result="BackgroundImageFix"/>
<feBlend mode="normal" in="SourceGraphic" in2="BackgroundImageFix" result="shape"/>
<feColorMatrix in="SourceAlpha" type="matrix" values="0 0 0 0 0 0 0 0 0 0 0 0 0 0 0 0 0 0 127 0" result="hardAlpha"/>
<feOffset dy="2"/>
<feGaussianBlur stdDeviation="2"/>
<feComposite in2="hardAlpha" operator="arithmetic" k2="-1" k3="1"/>
<feColorMatrix type="matrix" values="0 0 0 0 0 0 0 0 0 0 0 0 0 0 0 0 0 0 0.15 0"/>
<feBlend mode="normal" in2="shape" result="effect1_innerShadow"/>
</filter>
<radialGradient id="paint0_radial" cx="0" cy="0" r="1" gradientUnits="userSpaceOnUse" gradientTransform="translate(949 99.6025) rotate(90) scale(642)">
<stop stop-color="#04BEFE" stop-opacity="0.25"/>
<stop offset="1" stop-color="#C4C4C4" stop-opacity="0"/>
</radialGradient>
<linearGradient id="paint1_linear" x1="1142.69" y1="399.298" x2="1236.03" y2="229.468" gradientUnits="userSpaceOnUse">
<stop stop-color="#5FF19D" stop-opacity="0"/>
<stop offset="1" stop-color="#8EEDF4" stop-opacity="0.2"/>
</linearGradient>
<linearGradient id="paint2_linear" x1="870" y1="113.5" x2="1029" y2="113.5" gradientUnits="userSpaceOnUse">
<stop stop-color="#97F7B7"/>
<stop offset="1" stop-color="#8BE2FF"/>
</linearGradient>
<linearGradient id="paint3_linear" x1="888.569" y1="113.949" x2="1011.33" y2="113.949" gradientUnits="userSpaceOnUse">
<stop stop-color="#5DF09E"/>
<stop offset="1" stop-color="#8EEDF4"/>
</linearGradient>
<linearGradient id="paint4_linear" x1="915.438" y1="147.09" x2="993.636" y2="147.09" gradientUnits="userSpaceOnUse">
<stop stop-color="#04BEFE"/>
<stop offset="1" stop-color="#5FF19D"/>
</linearGradient>
<linearGradient id="paint5_linear" x1="906.88" y1="114.479" x2="996.02" y2="114.479" gradientUnits="userSpaceOnUse">
<stop stop-color="#04BEFE"/>
<stop offset="1" stop-color="#5FF19D"/>
</linearGradient>
<linearGradient id="paint6_linear" x1="912.004" y1="82.5299" x2="994.156" y2="82.5299" gradientUnits="userSpaceOnUse">
<stop stop-color="#04BEFE"/>
<stop offset="1" stop-color="#5FF19D"/>
</linearGradient>
<linearGradient id="paint7_linear" x1="856" y1="38.16" x2="1064.49" y2="37.0914" gradientUnits="userSpaceOnUse">
<stop offset="0.229167" stop-color="#676C72"/>
<stop offset="0.447917" stop-color="#3C434A"/>
<stop offset="0.801982" stop-color="#3A3A3A"/>
<stop offset="1" stop-color="#131414"/>
</linearGradient>
<linearGradient id="paint8_linear" x1="1029" y1="80" x2="704" y2="-1.50003" gradientUnits="userSpaceOnUse">
<stop stop-color="#222324"/>
<stop offset="0.441123" stop-color="#565D64"/>
<stop offset="0.521964" stop-color="#63696D"/>
</linearGradient>
<linearGradient id="paint9_linear" x1="1217.24" y1="861.585" x2="1228.64" y2="964.382" gradientUnits="userSpaceOnUse">
<stop stop-color="#5FF19D" stop-opacity="0"/>
<stop offset="0.520833" stop-color="#8EEDF4" stop-opacity="0.15"/>
</linearGradient>
<linearGradient id="paint10_linear" x1="1217.42" y1="901.188" x2="1496.01" y2="901.188" gradientUnits="userSpaceOnUse">
<stop stop-color="#5DF09E"/>
<stop offset="1" stop-color="#77CEFD"/>
</linearGradient>
<linearGradient id="paint11_linear" x1="1213" y1="868.568" x2="1476.4" y2="868.568" gradientUnits="userSpaceOnUse">
<stop stop-color="#5DF09E"/>
<stop offset="1" stop-color="#8EEDF4"/>
</linearGradient>
<linearGradient id="paint12_linear" x1="1234.88" y1="868.573" x2="1461.6" y2="868.573" gradientUnits="userSpaceOnUse">
<stop stop-color="#7AFAB0"/>
<stop offset="1" stop-color="#88DDFB"/>
</linearGradient>
<linearGradient id="paint13_linear" x1="1287.49" y1="870.722" x2="1324.39" y2="934.642" gradientUnits="userSpaceOnUse">
<stop stop-color="#04BEFE"/>
<stop offset="1" stop-color="#5FF19D"/>
</linearGradient>
<linearGradient id="paint14_linear" x1="1328.18" y1="837.9" x2="1370.25" y2="910.763" gradientUnits="userSpaceOnUse">
<stop stop-color="#04BEFE"/>
<stop offset="1" stop-color="#5FF19D"/>
</linearGradient>
<linearGradient id="paint15_linear" x1="1374.43" y1="816.785" x2="1413.2" y2="883.936" gradientUnits="userSpaceOnUse">
<stop stop-color="#04BEFE"/>
<stop offset="1" stop-color="#5FF19D"/>
</linearGradient>
<linearGradient id="paint16_linear" x1="462.897" y1="492.133" x2="478.822" y2="593.697" gradientUnits="userSpaceOnUse">
<stop stop-color="#5FF19D" stop-opacity="0"/>
<stop offset="0.520833" stop-color="#8EEDF4" stop-opacity="0.15"/>
</linearGradient>
<linearGradient id="paint17_linear" x1="285" y1="628.253" x2="467.849" y2="628.253" gradientUnits="userSpaceOnUse">
<stop stop-color="#5DF09E"/>
<stop offset="1" stop-color="#77CEFD"/>
</linearGradient>
<linearGradient id="paint18_linear" x1="303.829" y1="610.776" x2="475.949" y2="611.769" gradientUnits="userSpaceOnUse">
<stop stop-color="#5DF09E"/>
<stop offset="0.03" stop-color="#92EFA1"/>
<stop offset="1" stop-color="#8BE2FF"/>
</linearGradient>
<linearGradient id="paint19_linear" x1="322.844" y1="609.764" x2="460.793" y2="609.764" gradientUnits="userSpaceOnUse">
<stop stop-color="#5DF09E"/>
<stop offset="1" stop-color="#8EEDF4"/>
</linearGradient>
<linearGradient id="paint20_linear" x1="392.792" y1="660.159" x2="436.695" y2="616.256" gradientUnits="userSpaceOnUse">
<stop stop-color="#04BEFE"/>
<stop offset="1" stop-color="#5FF19D"/>
</linearGradient>
<linearGradient id="paint21_linear" x1="363.509" y1="640.486" x2="413.556" y2="590.44" gradientUnits="userSpaceOnUse">
<stop stop-color="#04BEFE"/>
<stop offset="1" stop-color="#5FF19D"/>
</linearGradient>
<linearGradient id="paint22_linear" x1="342.405" y1="613.628" x2="388.528" y2="567.504" gradientUnits="userSpaceOnUse">
<stop stop-color="#04BEFE"/>
<stop offset="1" stop-color="#5FF19D"/>
</linearGradient>
<clipPath id="clip0">
<rect width="283.01" height="223.55" fill="white" transform="translate(1213 775.848)"/>
</clipPath>
<clipPath id="clip1">
<rect width="191" height="180" fill="white" transform="translate(285 531.602)"/>
</clipPath>
</defs>
</svg>
