<svg id="레이어_1" data-name="레이어 1" xmlns="http://www.w3.org/2000/svg" xmlns:xlink="http://www.w3.org/1999/xlink" viewBox="0 0 2389.88 773.58"><defs><style>.cls-1{fill:url(#무제_그라디언트_260);}.cls-2{fill:#f0f0f7;}.cls-3{fill:url(#무제_그라디언트_5);}.cls-4{fill:url(#무제_그라디언트_5-2);}.cls-5{fill:url(#무제_그라디언트_5-3);}.cls-6{fill:url(#무제_그라디언트_5-4);}.cls-7{fill:url(#무제_그라디언트_5-5);}.cls-8{fill:url(#무제_그라디언트_5-6);}.cls-9{fill:#fafafa;}.cls-10{fill:#291d51;}.cls-11{fill:#9f9fc9;}</style><linearGradient id="무제_그라디언트_260" x1="442.74" y1="1109.68" x2="1821.36" y2="-215.22" gradientUnits="userSpaceOnUse"><stop offset="0" stop-color="#291d51"/><stop offset="1" stop-color="#291451"/></linearGradient><linearGradient id="무제_그라디언트_5" x1="2176.54" y1="269.22" x2="1453.36" y2="395.14" gradientUnits="userSpaceOnUse"><stop offset="0.04" stop-color="#5ff19d"/><stop offset="0.86" stop-color="#04befe"/></linearGradient><linearGradient id="무제_그라디언트_5-2" x1="2183.36" y1="308.38" x2="1460.18" y2="434.3" xlink:href="#무제_그라디언트_5"/><linearGradient id="무제_그라디언트_5-3" x1="2086.58" y1="342.78" x2="1363.4" y2="468.7" xlink:href="#무제_그라디언트_5"/><linearGradient id="무제_그라디언트_5-4" x1="2090" y1="362.43" x2="1366.82" y2="488.35" xlink:href="#무제_그라디언트_5"/><linearGradient id="무제_그라디언트_5-5" x1="2092.84" y1="378.74" x2="1369.66" y2="504.66" xlink:href="#무제_그라디언트_5"/><linearGradient id="무제_그라디언트_5-6" x1="2093.45" y1="382.23" x2="1370.27" y2="508.15" xlink:href="#무제_그라디언트_5"/></defs><rect class="cls-1" width="2389.88" height="773.58"/><path class="cls-2" d="M897.4,390.25a39.33,39.33,0,0,0,.9-42,40,40,0,0,0-15.08-14.07,43.51,43.51,0,0,0-21-5.12H801.07v122.1h27.47V408.29h23.9l24.73,42.88,32.9.2L882,403.76A40.36,40.36,0,0,0,897.4,390.25Zm-25.6-9.84a13.47,13.47,0,0,1-10.42,4.28H828.54V353.87h29.38c5.42,0,9.82,1.45,13.06,4.31a14.39,14.39,0,0,1,4.78,11.26A15.71,15.71,0,0,1,871.8,380.41Z"/><rect class="cls-2" x="937.68" y="329.08" width="28.43" height="122.1"/><polygon class="cls-2" points="1098.1 348.44 1097.16 347.74 1097.17 347.74 1098.2 348.3 1098.44 347.99 1098.44 329.08 1005.23 329.08 1005.23 355.22 1059.53 355.22 1000.98 431.78 1000.73 432.1 1000.73 451.18 1100.35 451.18 1100.35 425.71 1039.46 425.71 1098.1 348.44"/><path class="cls-2" d="M1236.1,344.84a59.64,59.64,0,0,0-20-13.26,69.37,69.37,0,0,0-50.25,0,59.4,59.4,0,0,0-33.21,33.15,69.47,69.47,0,0,0,0,50.29,59.4,59.4,0,0,0,33.21,33.15,69.37,69.37,0,0,0,50.25,0,59.46,59.46,0,0,0,20-13.27,61.56,61.56,0,0,0,13.17-20,68.6,68.6,0,0,0,0-50A61.71,61.71,0,0,0,1236.1,344.84Zm-15.36,63.81a32.69,32.69,0,0,1-12.09,12.9,35.93,35.93,0,0,1-35.43,0,32.87,32.87,0,0,1-12.09-12.82,42.92,42.92,0,0,1,0-37.8,32.73,32.73,0,0,1,12.08-12.9,33.89,33.89,0,0,1,17.8-4.67,33.14,33.14,0,0,1,17.62,4.74,33.59,33.59,0,0,1,12.1,12.92,39.31,39.31,0,0,1,4.38,18.77A39.84,39.84,0,0,1,1220.74,408.65Z"/><path class="cls-2" d="M1371,364.17c-.11,10.18,0,19.25.44,27,.15,2.86.23,5.4.31,7.88s.15,4.82.28,7.38l-58.14-76.87-.35-.46h-24.88v122.1h27.82V405.73c0-3-.06-6-.18-9,0-1.31,0-2.64,0-4.16,0-1.85,0-4-.09-6.71l-.09-3c0-2.1-.11-4.4-.27-7.61l57.45,75.45.35.46h25.22V329.08H1371Z"/><path class="cls-3" d="M1485.64,339.59q-10.11,9.44-10.11,27v21.36h66.17v8.77h-66.17v58.93h-9.73V366.19q0-21,12.88-33t37.28-12q24.21,0,38.9,11.06l-4,8q-13.35-10.11-34.71-10.11Q1495.74,330.15,1485.64,339.59Z"/><path class="cls-4" d="M1653.26,356.08v99.55h-9.34V432.17a42.68,42.68,0,0,1-16.59,17.93,46.77,46.77,0,0,1-24.22,6.29,49.51,49.51,0,0,1-25.17-6.48A46.27,46.27,0,0,1,1560.3,432a52.62,52.62,0,0,1-6.39-26.12,53.19,53.19,0,0,1,6.39-26.22,45.48,45.48,0,0,1,17.64-17.93,50.06,50.06,0,0,1,25.17-6.39,46,46,0,0,1,23.93,6.29,44.86,44.86,0,0,1,16.69,17.55V356.08Zm-29.08,86.39a38.25,38.25,0,0,0,14.3-14.87,47.64,47.64,0,0,0,0-43.48,38.28,38.28,0,0,0-14.3-14.88,42,42,0,0,0-41,0,38.28,38.28,0,0,0-14.3,14.88,47.64,47.64,0,0,0,0,43.48,38.25,38.25,0,0,0,14.3,14.87,42,42,0,0,0,41,0Z"/><path class="cls-5" d="M1768.46,356.08v99.55h-9.15V434.27a36.92,36.92,0,0,1-14.69,16.31q-9.72,5.82-22.88,5.81-19.46,0-30.51-10.87t-11.06-31.27V356.08h9.53v57.41q0,16.77,8.58,25.55t24.22,8.77q16.79,0,26.6-10.49t9.83-28.22v-53Z"/><path class="cls-6" d="M1814.8,449.91a46.49,46.49,0,0,1-17.93-18,55.9,55.9,0,0,1,0-52.25,45.86,45.86,0,0,1,17.93-17.93,52.27,52.27,0,0,1,25.93-6.39,50.28,50.28,0,0,1,21.84,4.67,39.41,39.41,0,0,1,15.92,13.64l-7,5.15a33.88,33.88,0,0,0-13.26-11.16,40.48,40.48,0,0,0-17.45-3.72,41.57,41.57,0,0,0-20.88,5.25,37.2,37.2,0,0,0-14.49,14.78,48.43,48.43,0,0,0,0,43.86,37.2,37.2,0,0,0,14.49,14.78,41.56,41.56,0,0,0,20.88,5.24,40.48,40.48,0,0,0,17.45-3.72,33.85,33.85,0,0,0,13.26-11.15l7,5.15a39.39,39.39,0,0,1-15.92,13.63,50.13,50.13,0,0,1-21.84,4.67A51.69,51.69,0,0,1,1814.8,449.91Z"/><path class="cls-7" d="M1956.59,444.28a35,35,0,0,0,13.82-10.39l5.53,6.29a40.9,40.9,0,0,1-16.21,12.11,57.77,57.77,0,0,1-48-2.38A46.84,46.84,0,0,1,1893.46,432a51.48,51.48,0,0,1-6.58-26.12,54,54,0,0,1,6.2-26.13,45.44,45.44,0,0,1,17.26-17.92,48.39,48.39,0,0,1,25-6.49,45.76,45.76,0,0,1,23.36,6,45.16,45.16,0,0,1,16.6,16.59,50.83,50.83,0,0,1,6.77,23.74l-84.1,16.4a38.17,38.17,0,0,0,14.49,21.74q10.88,8,26.12,8A45.45,45.45,0,0,0,1956.59,444.28ZM1915.11,369a36,36,0,0,0-13.92,14.68,45.39,45.39,0,0,0-5,21.45c0,1.41.12,3.38.38,5.92l75.9-14.88a39.86,39.86,0,0,0-6.29-16.4,35.47,35.47,0,0,0-13-11.73,37.38,37.38,0,0,0-17.93-4.29A39.22,39.22,0,0,0,1915.11,369Z"/><path class="cls-8" d="M2050.31,449.34a23.75,23.75,0,0,1-9.06,5.24,35.53,35.53,0,0,1-11.34,1.81q-13,0-20-7.15t-7.05-19.93v-95h9.53v21.74H2044v8.2h-31.66v64.08q0,9.72,4.68,14.78t13.82,5.05q9.35,0,15.45-5.53Z"/><path class="cls-9" d="M339.57,311.09V464a57.23,57.23,0,0,0,28.62,49.57l132.45,76.48a57.28,57.28,0,0,0,57.25,0l132.45-76.48A57.22,57.22,0,0,0,719,464v-153a57.25,57.25,0,0,0-28.63-49.58L557.89,185a57.28,57.28,0,0,0-57.25,0L368.19,261.51A57.26,57.26,0,0,0,339.57,311.09Z"/><ellipse class="cls-10" cx="425.8" cy="405.79" rx="19.46" ry="41.48"/><rect class="cls-10" x="425.8" y="364.31" width="31.42" height="82.96" transform="translate(883.02 811.59) rotate(-180)"/><rect class="cls-10" x="571.93" y="421.49" width="31.93" height="92" transform="translate(1055.38 -120.41) rotate(90)"/><ellipse class="cls-10" cx="587.89" cy="483.45" rx="46" ry="14.9"/><ellipse class="cls-11" cx="587.89" cy="451.48" rx="46" ry="15.64"/><ellipse class="cls-11" cx="457.22" cy="405.79" rx="20.83" ry="41.48"/><path class="cls-10" d="M463.77,376.12a14.9,14.9,0,0,1,2.86-.62c.52-.05,1-.08,1.56-.08a13.67,13.67,0,0,1,2.31.19c27,.82,62.23,1.65,89.26,2.47,15.3.47,30-.29,42.9,9.11,13.2,9.66,18.45,25.89,18.32,41.76l-.15,17.48v.62a.86.86,0,0,1,0,.16,1.62,1.62,0,0,1,0,.21,2.67,2.67,0,0,1-.16.6,3.48,3.48,0,0,1-.22.43c-2.56,4-17.32,7.1-35.16,7.1-17.58,0-24.09-2.56-27.36-6-.34-.36-.13-1.73-.17-2.13a1.48,1.48,0,0,1,0-.21c-.09-3.2-1.67-10.71-14.57-10.26h-75a14.29,14.29,0,0,1-4.42-.7c-9.38-3-14.49-15.31-14.49-30.06S454.39,379.1,463.77,376.12Z"/><path class="cls-10" d="M554.5,350.54V383.2c0,8.52-11.9,15.43-26.59,15.43s-26.59-6.91-26.59-15.43V350.54Z"/><ellipse class="cls-11" cx="528.27" cy="350.54" rx="35.34" ry="12.59"/><rect class="cls-11" x="492.93" y="331.93" width="70.68" height="18.6" transform="translate(1056.54 682.47) rotate(-180)"/><ellipse class="cls-10" cx="528.27" cy="332.91" rx="35.34" ry="12.59"/><rect class="cls-11" x="514.89" y="296.85" width="26.04" height="34.18" transform="translate(1055.83 627.89) rotate(-180)"/><path class="cls-10" d="M541.7,286.21l39-10.12a4,4,0,0,1,4,.94c3.69,3.54,10.31,12.3,2.25,23.4a6,6,0,0,1-4.89,2.33l-40-1Z"/><ellipse class="cls-11" cx="527.91" cy="330.8" rx="13.02" ry="4.82"/><circle class="cls-10" cx="527.86" cy="290.78" r="21.95"/><path class="cls-10" d="M463.11,295.85c-1.17-8,3.1-15.28,9.54-16.23,1.55-.22,10.83-.13,12.3.37l27.61,3.41h0l.19,0,.41.05h.16l.1,0h0a3.77,3.77,0,0,1,.64.23l.26.14.24.15a2.7,2.7,0,0,1,.34.25l.15.12a1.68,1.68,0,0,1,.21.18v0c1.62,1.54,2.67,4.39,2.59,7.62a12.19,12.19,0,0,1-1.39,5.52l-.06.11a6.53,6.53,0,0,1-2.4,2.55,4.93,4.93,0,0,1-.71.31,2.79,2.79,0,0,1-.8.17l-.59.13-35,7.63C470.44,309.61,464.28,303.86,463.11,295.85Z"/><ellipse class="cls-11" cx="474.76" cy="294.15" rx="11.78" ry="14.67" transform="translate(-37.48 71.59) rotate(-8.3)"/></svg>