<svg width="100" height="54" viewBox="0 0 100 54" fill="none" xmlns="http://www.w3.org/2000/svg">
<path d="M100 27.0159C100 23.7432 85.6 20.3023 65.6545 19.0705C77.5409 17.9977 85.7318 15.7932 85.7318 13.5432C85.7318 10.9841 74.0136 8.26137 58.2682 7.52955C64.1682 6.87501 68.2136 5.54773 68.2136 4.07501C68.2136 2.41137 60.0591 0.184097 50 0.184097C39.9409 0.184097 31.7864 2.23864 31.7864 4.07501C31.7864 5.77955 35.5273 6.96137 41.0636 7.54319C25.6545 8.26137 14.2682 10.7705 14.2682 13.5432C14.2682 15.775 22.3455 17.9659 34.0955 19.0477C14.2773 20.2023 0 23.4341 0 27.0159C0 30.6886 14.1273 33.8432 33.7773 34.9841C22.2 36.075 14.2682 38.2432 14.2682 40.4568C14.2682 43.2295 25.6545 45.7386 41.0636 46.4568C35.5273 47.0386 31.7864 48.2205 31.7864 49.925C31.7864 51.7614 39.9409 53.8159 50 53.8159C60.0591 53.8159 68.2136 51.5886 68.2136 49.925C68.2136 48.4523 64.1682 47.125 58.2682 46.4659C74.0136 45.7341 85.7318 43.0159 85.7318 40.4568C85.7318 38.225 77.6818 36.0432 65.9636 34.9568C85.75 33.7386 100 30.3841 100 27.0159ZM36.6682 17.1841L36.7182 17.1432C36.7909 17.0932 36.8545 17.0432 36.9409 16.9886C37.0227 16.9296 37.1091 16.8795 37.1955 16.8205L47.5909 10.8205C48.3364 10.3977 49.1636 10.1796 50.0136 10.1796C50.8591 10.1796 51.6955 10.3977 52.4227 10.8205C52.4227 10.8205 62.6636 16.725 62.8182 16.8114C63.6727 17.3068 64.3545 18.1568 64.5727 19.1477C64.6318 19.4159 64.7955 20.0068 64.5591 20.2477C64.5182 20.2886 64.4682 20.3205 64.4 20.3341C64.1091 20.4159 63.7409 20.3614 63.4455 20.3523C63.1 20.3432 62.7636 20.325 62.4227 20.3068C61.7545 20.2614 61.0773 20.1977 60.4091 20.125C59.5182 20.0295 58.6318 19.9386 57.75 19.8386C56.4091 19.7023 55.0773 19.5568 53.7409 19.4159C52.1773 19.2477 50.6227 19.0841 49.0682 18.9205C47.5136 18.7523 45.9636 18.5886 44.4045 18.425C43.0773 18.2795 41.7545 18.1432 40.4318 18.0023C39.5591 17.9068 38.6909 17.8205 37.8182 17.7205C37.6 17.6977 37.3818 17.675 37.1591 17.6523C37.1091 17.6432 37.0591 17.6341 37.0091 17.6341C36.85 17.6068 36.6955 17.5886 36.6273 17.475C36.6 17.425 36.5773 17.3205 36.6682 17.1841ZM64.5636 35.4432L64.5546 35.4568C64.5091 35.5386 64.4591 35.6159 64.4091 35.6886L64.3182 35.8205C63.9818 36.2977 63.5636 36.7023 63.0682 37.0295L52.4227 43.1841C51.6818 43.6068 50.85 43.8205 50.0136 43.8205C49.1773 43.8205 48.35 43.6068 47.5955 43.1841L38.3227 37.825C38.2045 37.7432 38.1045 37.675 38.0273 37.6068L38.0045 37.5977C37.8818 37.4614 37.8364 37.3341 37.8727 37.2023C37.9909 36.8432 38.7773 36.6841 38.8136 36.6795C39.0273 36.6432 39.2318 36.6114 39.4364 36.575L39.5727 36.5568C39.9136 36.5114 40.2455 36.4568 40.5864 36.4068C40.9227 36.3568 41.2591 36.3114 41.6045 36.2614C42.9409 36.075 44.2273 35.9068 45.5455 35.7568C46.7864 35.6023 48.0682 35.4705 49.3591 35.3523C50.7182 35.225 51.9273 35.1295 53.0364 35.0568C54.2455 34.9841 55.4409 34.9159 56.6 34.8795C57.7591 34.825 58.9136 34.8068 60.0455 34.8023C60.1545 34.8023 60.2727 34.7977 60.3818 34.7977H60.7182C61.5682 34.7977 62.4682 34.8068 63.3818 34.825C63.4909 34.8341 63.6045 34.8386 63.7136 34.8432L63.9 34.8523C64.2409 34.8841 64.4545 34.9841 64.5455 35.1295C64.6045 35.2205 64.6045 35.3205 64.5636 35.4432ZM65.2273 29.5568C65.2273 30.8614 65.2409 30.8886 62.5545 31.225L60.8046 31.375C60.5773 31.3977 60.3318 31.4159 60.0864 31.4523L59.5318 31.4977C55.0818 31.9477 50.6227 32.3295 46.1591 32.6068C44.1864 32.7295 42.2182 32.8295 40.2364 32.9068C39.3136 32.9386 38.3955 32.975 37.4727 32.9977C37.0273 33.0023 36.5864 33.0114 36.1455 33.0205C35.7909 33.0295 35.25 33.1432 34.9682 32.8795C34.7 32.6295 34.7864 32.1341 34.7864 31.7932V22.9432C34.7864 21.7159 35.1727 21.4477 37.7227 21.2886C38.1455 21.2841 38.5955 21.275 39.1864 21.275C46.65 21.275 54.5955 22.3841 64.1864 24.7795C64.2 24.7795 64.2136 24.7795 64.2227 24.7841C64.2273 24.7841 64.2364 24.7886 64.2409 24.7886C64.3182 24.8114 64.4 24.8295 64.4818 24.8477L64.5 24.8523C64.8409 24.9841 65.2273 24.9159 65.2273 26.0523V29.5568Z" fill="white"/>
</svg>
