<svg id="레이어_1" data-name="레이어 1" xmlns="http://www.w3.org/2000/svg" xmlns:xlink="http://www.w3.org/1999/xlink" viewBox="0 0 16 16"><defs><style>.cls-1{fill:url(#무제_그라디언트_9);}.cls-2{fill:url(#무제_그라디언트_3);}.cls-3{fill:url(#무제_그라디언트_3-2);}.cls-4{fill:url(#무제_그라디언트_3-3);}</style><linearGradient id="무제_그라디언트_9" x1="4.77" y1="14.76" x2="12.49" y2="-1.42" gradientUnits="userSpaceOnUse"><stop offset="0.02" stop-color="#291051"/><stop offset="1" stop-color="#291d51"/></linearGradient><linearGradient id="무제_그라디언트_3" x1="13.83" y1="2.82" x2="6.47" y2="13.63" gradientUnits="userSpaceOnUse"><stop offset="0.04" stop-color="#5ff19d"/><stop offset="0.21" stop-color="#59eea3"/><stop offset="0.43" stop-color="#49e5b4"/><stop offset="0.68" stop-color="#2fd6d0"/><stop offset="0.96" stop-color="#0ac2f7"/><stop offset="1" stop-color="#04befe"/></linearGradient><linearGradient id="무제_그라디언트_3-2" x1="12.17" y1="1.68" x2="4.8" y2="12.49" xlink:href="#무제_그라디언트_3"/><linearGradient id="무제_그라디언트_3-3" x1="11.22" y1="1.03" x2="3.85" y2="11.85" xlink:href="#무제_그라디언트_3"/></defs><rect class="cls-1" x="-0.05" y="-0.05" width="16.1" height="16.1"/><path class="cls-2" d="M12.43,10.57h0l0,.07,0,0a1.38,1.38,0,0,1-.39.37L8.74,12.92a1.45,1.45,0,0,1-1.47,0L4.45,11.29l-.09-.06h0a.12.12,0,0,1,0-.12c0-.11.28-.15.29-.16l.19,0h0l.31-.05.31,0,1.2-.16,1.15-.12,1.12-.09,1.09,0,1.05,0h1.17c.1,0,.17,0,.19.08A.11.11,0,0,1,12.43,10.57Z"/><path class="cls-3" d="M12.63,7.71V8.78c0,.39,0,.4-.81.5l-.53.05-.22,0-.17,0c-1.35.14-2.71.25-4.07.34L5,9.8l-.84,0H3.78c-.1,0-.27,0-.35,0s-.06-.23-.06-.33V6.77c0-.38.12-.46.9-.51h.44a31.38,31.38,0,0,1,7.6,1.06h0l.07,0h0C12.51,7.39,12.63,7.37,12.63,7.71Z"/><path class="cls-4" d="M12.43,6l0,0a.94.94,0,0,1-.29,0l-.31,0-.61,0-.81-.09L9.14,5.69,7.72,5.54,6.3,5.39,5.09,5.26l-.8-.08-.2,0h0s-.1,0-.12-.05,0,0,0-.09H4L4,5l.08,0L7.27,3.08a1.45,1.45,0,0,1,1.47,0L11.9,4.9a1.09,1.09,0,0,1,.53.71C12.45,5.69,12.5,5.87,12.43,6Z"/></svg>